<svg width="10" height="9" viewBox="0 0 10 9" fill="none" xmlns="http://www.w3.org/2000/svg">
<path d="M3.83086 1.79573C4.72856 1.23249 5.65019 1.18325 6.59968 1.64875C6.83682 1.44857 6.8599 1.44144 7.0182 1.52566C7.16162 1.38227 7.30676 1.237 7.45202 1.09197C7.55774 0.986488 7.66376 0.881311 7.76954 0.77583C7.88505 0.66066 8.02376 0.603806 8.18793 0.604842C8.43928 0.606365 8.69068 0.604903 8.94202 0.60539C9.08869 0.605695 9.18217 0.685522 9.18168 0.80837C9.18119 0.931158 9.08802 1.00971 8.94055 1.00995C8.69484 1.01044 8.44907 1.00812 8.20342 1.0119C8.15867 1.01257 8.10125 1.02335 8.07169 1.05206C7.81312 1.30281 7.55951 1.55868 7.30303 1.8145C7.36742 1.87781 7.42888 1.9382 7.49567 2.00383C7.67031 1.82973 7.8455 1.65521 8.02063 1.48062C8.05859 1.44284 8.09801 1.4064 8.13412 1.36698C8.19111 1.30488 8.25925 1.2777 8.34458 1.27905C8.54505 1.28209 8.74559 1.27953 8.94612 1.2802C9.08759 1.28069 9.17929 1.35875 9.18161 1.47867C9.184 1.60164 9.08992 1.68415 8.94496 1.68476C8.78115 1.68543 8.61735 1.68348 8.45354 1.68622C8.42287 1.68677 8.38382 1.69536 8.36331 1.71529C8.16945 1.90371 7.97876 2.09541 7.78135 2.29193C7.9249 2.47944 7.77964 2.58662 7.66094 2.70094C8.13015 3.64741 8.08417 4.56542 7.51942 5.46052C7.54978 5.49958 7.58626 5.53876 7.61362 5.58349C7.66645 5.66984 7.65672 5.75759 7.5851 5.82986C7.39668 6.01998 7.20747 6.20943 7.01575 6.3962C6.92577 6.48383 6.81436 6.4803 6.72033 6.39529C6.70778 6.38395 6.69615 6.37165 6.68415 6.3597C5.43613 5.1172 4.18804 3.8747 2.93996 2.63208C2.79384 2.48663 2.79421 2.39406 2.94045 2.2483C3.10015 2.0892 3.2598 1.93009 3.41963 1.77105C3.55938 1.63199 3.65744 1.63162 3.80191 1.76922C3.81201 1.77879 3.82247 1.78799 3.83086 1.79573ZM7.33602 2.44415C7.17564 2.28505 7.02003 2.13076 6.86253 1.97458C6.85868 1.97756 6.84937 1.98378 6.84129 1.99133C6.67809 2.14386 6.64596 2.14617 6.45099 2.03746C5.88831 1.72364 5.29656 1.65637 4.67806 1.83887C4.48395 1.89615 4.30037 1.97854 4.14299 2.08633C5.17187 3.11056 6.19702 4.13113 7.22461 5.15413C7.23545 5.1378 7.25228 5.11586 7.2655 5.09197C7.67263 4.35537 7.68053 3.61475 7.28258 2.87278C7.16346 2.65067 7.15948 2.64902 7.32996 2.4572C7.33345 2.4533 7.33461 2.44726 7.33602 2.44415ZM3.34213 2.4394C4.51774 3.60975 5.69678 4.78351 6.86914 5.95063C6.95576 5.86544 7.04942 5.77337 7.1383 5.68593C5.96287 4.51594 4.78414 3.3426 3.60841 2.17232C3.52369 2.25732 3.43266 2.34861 3.34213 2.4394Z" fill="#FF0000"/>
<path d="M5.62542 6.36233C5.51077 6.36403 5.42011 6.27653 5.41944 6.16355C5.41882 6.05155 5.51028 5.96027 5.62273 5.96069C5.73163 5.96106 5.82192 6.04863 5.82498 6.15667C5.82822 6.26873 5.73903 6.36062 5.62542 6.36233Z" fill="#FF0000"/>
<path d="M2.65478 8.08025C2.53976 8.08196 2.45081 7.99561 2.44996 7.88148C2.4491 7.76917 2.54037 7.67679 2.65166 7.67722C2.75903 7.67764 2.8503 7.76655 2.85366 7.87416C2.85721 7.98604 2.76796 8.07855 2.65478 8.08025Z" fill="#FF0000"/>
<path d="M3.13335 3.88104C3.01876 3.88268 2.92859 3.79542 2.92798 3.68238C2.92737 3.57075 3.01943 3.47837 3.13072 3.47891C3.23852 3.47946 3.32954 3.56788 3.33316 3.6755C3.33683 3.78646 3.24654 3.87939 3.13335 3.88104Z" fill="#FF0000"/>
<path d="M3.75579 4.50234C3.64193 4.50417 3.55237 4.41636 3.55176 4.30235C3.55115 4.18913 3.64132 4.09821 3.75358 4.09894C3.86156 4.09961 3.95198 4.18785 3.9554 4.29589C3.95889 4.40649 3.86793 4.50058 3.75579 4.50234Z" fill="#FF0000"/>
<path d="M2.31209 4.69222C2.19805 4.69082 2.11156 4.60106 2.11407 4.48681C2.11645 4.37803 2.20528 4.29102 2.31436 4.29065C2.42552 4.29022 2.51967 4.38352 2.51893 4.49327C2.51826 4.60454 2.42558 4.69362 2.31209 4.69222Z" fill="#FF0000"/>
<path d="M4.37388 4.7208C4.48823 4.71971 4.57693 4.8074 4.57687 4.92153C4.5768 5.03463 4.48584 5.12561 4.37412 5.12427C4.26608 5.12293 4.17671 5.03445 4.1739 4.9261C4.17102 4.81453 4.26131 4.7219 4.37388 4.7208Z" fill="#FF0000"/>
<path d="M3.76199 5.73499C3.76101 5.84791 3.66895 5.93755 3.55681 5.93486C3.4487 5.93224 3.35945 5.8423 3.35817 5.73469C3.35688 5.62439 3.44993 5.53128 3.56146 5.53134C3.67507 5.5314 3.76297 5.62067 3.76199 5.73499Z" fill="#FF0000"/>
<path d="M0.779205 5.81788C0.893246 5.81702 0.982068 5.90557 0.9817 6.01964C0.981333 6.13268 0.890063 6.22311 0.778103 6.22134C0.670428 6.21969 0.579955 6.13012 0.577445 6.02275C0.574874 5.91282 0.667613 5.81867 0.779205 5.81788Z" fill="#FF0000"/>
<path d="M2.99604 6.49645C2.99585 6.60942 2.90556 6.69766 2.79134 6.6965C2.68262 6.69541 2.59282 6.60735 2.59062 6.49974C2.58835 6.39017 2.68164 6.29469 2.79213 6.29353C2.90293 6.29237 2.99622 6.38518 2.99604 6.49645Z" fill="#FF0000"/>
<path d="M1.60647 6.63581C1.60831 6.74696 1.51685 6.84068 1.4055 6.84165C1.29483 6.84263 1.20068 6.74927 1.20093 6.63879C1.20117 6.53051 1.28901 6.44179 1.39834 6.43947C1.51355 6.43709 1.60457 6.52295 1.60647 6.63581Z" fill="#FF0000"/>
<path d="M3.21585 7.11224C3.21781 7.0003 3.31165 6.91127 3.42392 6.91487C3.53178 6.91828 3.62091 7.0095 3.62084 7.11645C3.62078 7.22644 3.52608 7.31961 3.41547 7.31851C3.30333 7.31736 3.21383 7.22492 3.21585 7.11224Z" fill="#FF0000"/>
<path d="M4.9976 5.34217C5.11293 5.34138 5.20114 5.42821 5.20089 5.54228C5.20065 5.65447 5.10852 5.74551 4.99686 5.7438C4.8887 5.74216 4.79865 5.65349 4.79596 5.54588C4.79315 5.43577 4.88509 5.3429 4.9976 5.34217Z" fill="#FF0000"/>
<path d="M4.38563 6.3535C4.38533 6.46496 4.29179 6.5574 4.18112 6.55569C4.07044 6.55392 3.97771 6.45838 3.98028 6.34881C3.98285 6.24077 4.07216 6.15406 4.18179 6.15321C4.29645 6.15229 4.38594 6.24028 4.38563 6.3535Z" fill="#FF0000"/>
<path d="M3.83963 7.73267C3.84153 7.61908 3.93169 7.53389 4.04702 7.53688C4.15617 7.53968 4.24364 7.62902 4.24327 7.73706C4.24284 7.84766 4.14839 7.94107 4.03839 7.93967C3.92686 7.93839 3.83773 7.84552 3.83963 7.73267Z" fill="#FF0000"/>
<path d="M3.27667 8.29831C3.38985 8.30026 3.47653 8.39142 3.47396 8.50574C3.47151 8.61548 3.38355 8.70189 3.27391 8.70226C3.16251 8.70262 3.06952 8.60969 3.07032 8.49885C3.07111 8.38788 3.16532 8.29642 3.27667 8.29831Z" fill="#FF0000"/>
<path d="M2.94146 5.31295C2.82681 5.31484 2.73707 5.228 2.73609 5.11417C2.73511 5.00138 2.82571 4.90936 2.93748 4.90948C3.04522 4.90961 3.13606 4.9979 3.13967 5.10601C3.14347 5.21807 3.05434 5.31112 2.94146 5.31295Z" fill="#FF0000"/>
<path d="M2.17021 5.67477C2.28088 5.67465 2.36939 5.76124 2.37129 5.87154C2.37325 5.98701 2.28596 6.07586 2.17051 6.07598C2.05702 6.0761 1.9644 5.98311 1.9671 5.87178C1.96979 5.76338 2.06094 5.6749 2.17021 5.67477Z" fill="#FF0000"/>
<path d="M4.80195 7.17346C4.68834 7.17072 4.60197 7.07944 4.60558 6.96585C4.60907 6.85702 4.69819 6.77231 4.80844 6.77305C4.9215 6.77378 5.01277 6.86561 5.01063 6.97651C5.00855 7.08821 4.91532 7.1762 4.80195 7.17346Z" fill="#FF0000"/>
<path d="M2.026 7.45987C1.91202 7.45914 1.82442 7.36969 1.8262 7.25586C1.82791 7.14654 1.91533 7.05988 2.02527 7.05879C2.13765 7.05763 2.23113 7.14849 2.23137 7.25927C2.23162 7.37024 2.13918 7.4606 2.026 7.45987Z" fill="#FF0000"/>
<path d="M1.74965 5.25671C1.74886 5.36933 1.65416 5.4614 1.54263 5.45799C1.43299 5.45464 1.34631 5.36469 1.34668 5.25476C1.34705 5.14008 1.43697 5.05343 1.55309 5.05587C1.6642 5.05818 1.75045 5.14636 1.74965 5.25671Z" fill="#FF0000"/>
</svg>
