<svg width="119" height="75" viewBox="0 0 119 75" fill="none" xmlns="http://www.w3.org/2000/svg">
<g opacity="0.12">
<path d="M13.4899 29.5787L8.57856 33.9488C8.47724 34.0565 8.31927 34.1507 8.10573 34.2315C7.89219 34.3122 8.19289 34.3526 7.94122 34.3526H2.27374C1.66799 34.3526 0.692909 34.2045 0.416181 33.9073C0.138364 33.6112 0 33.1401 0 32.4917V6.2724C0 5.92244 0.0435792 5.62519 0.132917 5.38179C0.221164 5.1395 0.352991 4.93648 0.529487 4.77496L5.40382 0.365622C5.52911 0.257941 5.69907 0.17045 5.9137 0.103149C6.12723 0.0358477 6.36038 0.00219727 6.61314 0.00219727H10.5429C11.0974 0.00219727 11.5626 0.0975403 11.9407 0.285983C12.3187 0.475547 12.6957 0.785131 13.0738 1.21698L15.6809 4.45415L20.2534 0.365622C20.3787 0.257941 20.5498 0.17045 20.7633 0.103149C20.9768 0.0358477 21.21 0.00219727 21.4627 0.00219727H27.1302C27.7349 0.00219727 28.175 0.151381 28.4518 0.447505C28.7296 0.744751 28.8679 1.21586 28.8679 1.86307V28.0824C28.8679 28.4335 28.8233 28.7296 28.735 28.9719C28.6468 29.2153 28.5149 29.4172 28.3385 29.5787L23.4271 33.9488C23.3258 34.0565 23.1678 34.1507 22.9542 34.2315C22.7407 34.3122 23.0425 34.3526 22.7908 34.3526H17.1234C16.5187 34.3526 15.5425 34.2045 15.2658 33.9073C14.988 33.61 14.8507 33.1378 14.8507 32.4906V27.6752L14.0194 26.5827V28.0801C14.0194 28.4312 13.9748 28.7274 13.8865 28.9696C13.7983 29.2153 13.6653 29.4172 13.4899 29.5787Z" fill="#030404"/>
<path d="M52.0375 34.3536H34.5045C33.8987 34.3536 32.9236 34.2056 32.6469 33.9083C32.3691 33.6111 32.2307 33.1388 32.2307 32.4916V6.2723C32.2307 5.92234 32.2743 5.62509 32.3636 5.38169C32.4519 5.1394 32.5837 4.93638 32.7602 4.77486L37.6356 0.364402C37.7609 0.25672 37.9309 0.169229 38.1455 0.101928C38.359 0.034627 38.5922 0.000976562 38.8449 0.000976562H56.3768C56.9815 0.000976562 57.4227 0.15016 57.6995 0.446284C57.9762 0.74353 58.1157 1.21464 58.1157 1.86185V6.59647C58.1157 6.94755 58.071 7.24368 57.9827 7.48708C57.8934 7.72937 57.7616 7.93239 57.5862 8.09391L54.3363 10.9665C54.5879 11.1011 54.771 11.3042 54.8843 11.5734C54.9976 11.8437 55.0542 12.1948 55.0542 12.6255V16.9552C55.0542 17.3063 55.0096 17.6024 54.9213 17.8458C54.832 18.0881 54.7012 18.2911 54.5247 18.4527L51.1615 21.4868H56.3758C56.9804 21.4868 57.4217 21.6349 57.6984 21.9321C57.9751 22.2294 58.1146 22.7016 58.1146 23.3488V28.0834C58.1146 28.4345 58.0699 28.7306 57.9816 28.9729C57.8923 29.2163 57.7605 29.4182 57.5851 29.5797L52.6726 33.9498C52.5724 34.0575 52.4144 34.1517 52.2009 34.2325C51.9862 34.3132 52.288 34.3536 52.0375 34.3536Z" fill="#030404"/>
<path d="M73.9455 29.5788L69.0341 33.9488C68.9339 34.0565 68.7759 34.1507 68.5624 34.2315C68.3477 34.3123 68.6495 34.3526 68.3979 34.3526H62.6541C62.0495 34.3526 61.0733 34.2046 60.7966 33.9073C60.5188 33.6101 60.3815 33.1379 60.3815 32.4906V28.161C60.3815 26.8396 60.4817 25.8548 60.6833 25.2076C60.8848 24.5604 61.2879 23.8055 61.8926 22.9418L64.8026 18.7747L61.8926 14.6077C61.2879 13.7451 60.8848 12.9891 60.6833 12.3419C60.4817 11.6947 60.3815 10.7098 60.3815 9.38736V6.27245C60.3815 5.92248 60.4251 5.62524 60.5133 5.38183C60.6015 5.13955 60.7334 4.93652 60.911 4.775L65.7853 0.364547C65.9106 0.256865 66.0816 0.169374 66.2952 0.102073C66.5087 0.0347721 66.7419 0.00112168 66.9946 0.00112168H72.8135C73.4182 0.00112168 73.8594 0.150305 74.1361 0.44643C74.4129 0.743675 74.5523 1.21478 74.5523 1.86199V4.65386C74.5523 4.89614 74.5578 5.14628 74.5709 5.40202C74.5839 5.65889 74.6656 5.89444 74.816 6.1098L75.2322 6.75701V6.27133C75.2322 5.92136 75.2757 5.62411 75.3651 5.38071C75.4533 5.13843 75.5852 4.9354 75.7617 4.77388L80.636 0.363425C80.7613 0.255744 80.9323 0.168252 81.147 0.100951C81.3605 0.0336505 81.5936 0 81.8453 0H87.589C88.1948 0 88.6349 0.149184 88.9117 0.445308C89.1884 0.742554 89.3279 1.21366 89.3279 1.86087V4.9769C89.3279 6.29825 89.2265 7.28308 89.025 7.93029C88.8234 8.5775 88.4203 9.33352 87.8157 10.1961L84.9057 14.4035L87.8157 18.5313C88.4203 19.395 88.8223 20.1499 89.025 20.7971C89.2265 21.4443 89.3279 22.4292 89.3279 23.7516V28.0813C89.3279 28.4324 89.2832 28.7285 89.1949 28.9708C89.1056 29.2142 88.9749 29.4161 88.7984 29.5776L83.8859 33.9477C83.7857 34.0554 83.6277 34.1496 83.4142 34.2304C83.1995 34.3111 83.5013 34.3515 83.2496 34.3515H77.5059C76.9013 34.3515 75.9251 34.2035 75.6494 33.9062C75.3716 33.609 75.2333 33.1367 75.2333 32.4895V28.484C75.2333 28.2417 75.2267 27.9983 75.2136 27.756C75.2006 27.5126 75.12 27.2703 74.9685 27.0281L74.4772 26.3001V28.0802C74.4772 28.4313 74.4336 28.7274 74.3453 28.9697C74.2538 29.2153 74.122 29.4172 73.9455 29.5788Z" fill="#030404"/>
<path d="M105.54 34.354H99.4196C98.815 34.354 97.8388 34.2059 97.5621 33.9086C97.2842 33.6114 97.1459 33.1392 97.1459 32.492V13.0308H91.9698C91.364 13.0308 90.9239 12.8827 90.6471 12.5855C90.3693 12.2893 90.231 11.8171 90.231 11.1699V6.27264C90.231 5.92268 90.2745 5.62543 90.3639 5.38203C90.4521 5.13975 90.5839 4.93672 90.7604 4.7752L95.6348 0.365866C95.7601 0.258185 95.93 0.170694 96.1446 0.103393C96.3582 0.0360919 96.5913 0.00244141 96.8441 0.00244141H116.795C117.399 0.00244141 117.839 0.151625 118.116 0.447749C118.394 0.744995 118.532 1.2161 118.532 1.86331V6.75945C118.532 7.11054 118.488 7.40667 118.399 7.65007C118.311 7.89235 118.179 8.09538 118.003 8.2569L113.092 12.627C112.99 12.7358 112.832 12.8289 112.619 12.9096C112.405 12.9904 112.172 13.0308 111.92 13.0308H111.617V28.0826C111.617 28.4337 111.573 28.7298 111.485 28.9721C111.396 29.2155 111.264 29.4174 111.088 29.579L106.177 33.949C106.075 34.0567 105.917 34.1509 105.704 34.2317C105.49 34.3136 105.792 34.354 105.54 34.354Z" fill="#030404"/>
<path d="M12.2807 29.5385C12.759 29.5385 13.1044 29.4241 13.319 29.1941C13.5325 28.9653 13.6404 28.594 13.6404 28.0814V14.7289L20.1021 23.1045V28.0814C20.1021 28.594 20.2089 28.9653 20.4235 29.1941C20.637 29.4241 20.9835 29.5385 21.4618 29.5385H27.1292C27.6075 29.5385 27.954 29.4241 28.1675 29.1941C28.3811 28.9653 28.4889 28.594 28.4889 28.0814V1.86209C28.4889 1.35061 28.3822 0.979331 28.1675 0.749386C27.954 0.520563 27.6064 0.405029 27.1292 0.405029H21.4629C20.9846 0.405029 20.6381 0.520563 20.4246 0.749386C20.21 0.979331 20.1032 1.35061 20.1032 1.86209V10.4811L12.7732 1.49867C12.4452 1.09374 12.1119 0.811078 11.7709 0.648434C11.4309 0.486912 11.0213 0.405029 10.543 0.405029H6.61326C6.13498 0.405029 5.78744 0.520563 5.5739 0.749386C5.36036 0.979331 5.2525 1.35061 5.2525 1.86209V28.0814C5.2525 28.594 5.35927 28.9653 5.5739 29.1941C5.78744 29.4241 6.13498 29.5385 6.61326 29.5385H12.2807Z" fill="white"/>
<path d="M10.238 4.37138L24.143 21.1226V4.04722H24.521V25.8965H24.143V21.7294L9.8599 4.57329C9.83485 4.54749 9.80325 4.51944 9.76512 4.49252C9.72699 4.4656 9.69539 4.45214 9.67142 4.45214C9.64528 4.45214 9.62676 4.4656 9.61477 4.49252C9.6017 4.51944 9.59625 4.54637 9.59625 4.57329V25.8965H9.2182V4.49252C9.2182 4.331 9.26832 4.20874 9.36964 4.12798C9.46987 4.04722 9.57119 4.00684 9.67251 4.00684C9.77275 4.00684 9.86099 4.03376 9.93617 4.0876C10.0113 4.14256 10.1116 4.23678 10.238 4.37138Z" fill="#030404"/>
<path d="M56.3759 29.5385C56.8542 29.5385 57.2007 29.4241 57.4153 29.1941C57.6288 28.9653 57.7367 28.594 57.7367 28.0814V23.3468C57.7367 22.8342 57.6299 22.4629 57.4153 22.2341C57.2007 22.0053 56.8542 21.8897 56.3759 21.8897H45.9474V18.4092H53.3156C53.7939 18.4092 54.1403 18.2947 54.355 18.0659C54.5685 17.8371 54.6764 17.4658 54.6764 16.9532V12.6235C54.6764 12.1109 54.5696 11.7396 54.355 11.5108C54.1403 11.282 53.7939 11.1664 53.3156 11.1664H45.9474V8.05378H56.3759C56.8542 8.05378 57.2007 7.93937 57.4153 7.70942C57.6288 7.4806 57.7367 7.10932 57.7367 6.59672V1.86209C57.7367 1.35061 57.6299 0.979331 57.4153 0.749386C57.2007 0.520563 56.8542 0.405029 56.3759 0.405029H38.844C38.3658 0.405029 38.0182 0.520563 37.8047 0.749386C37.5911 0.979331 37.4833 1.35061 37.4833 1.86209V28.0814C37.4833 28.594 37.59 28.9653 37.8047 29.1941C38.0182 29.4241 38.3658 29.5385 38.844 29.5385H56.3759Z" fill="white"/>
<path d="M54.335 25.4923V25.8972H41.6023V4.04688H54.335V4.4518H41.9803V14.6075H51.2758V15.0124H41.9803V25.4923H54.335Z" fill="#030404"/>
<path d="M74.0982 28.0825V24.077C74.0982 23.8078 74.1102 23.524 74.1363 23.2268C74.1603 22.9307 74.2616 22.6469 74.4381 22.3765L76.1388 19.827C76.2902 19.5836 76.4275 19.4097 76.5539 19.3009C76.6792 19.1932 76.8426 19.1394 77.0452 19.1394H77.5747C77.7763 19.1394 77.9397 19.1932 78.0661 19.3009C78.1914 19.4097 78.3308 19.5836 78.4823 19.827L80.1448 22.3765C80.3213 22.6457 80.4226 22.9295 80.4477 23.2268C80.4717 23.524 80.4858 23.8067 80.4858 24.077V28.0825C80.4858 28.5951 80.5926 28.9664 80.8072 29.1952C81.0208 29.4252 81.3672 29.5396 81.8455 29.5396H87.5892C88.0675 29.5396 88.414 29.4252 88.6286 29.1952C88.8421 28.9664 88.95 28.5951 88.95 28.0825V23.7528C88.95 22.5123 88.8552 21.5813 88.6667 20.961C88.4782 20.3407 88.0937 19.6127 87.5141 18.7759L84.4537 14.4059L87.5141 9.95503C88.0686 9.11938 88.4466 8.39141 88.6471 7.77C88.8487 7.1497 88.95 6.21871 88.95 4.97813V1.86209C88.95 1.35061 88.8432 0.979331 88.6286 0.749386C88.414 0.520563 88.0675 0.405029 87.5892 0.405029H81.8455C81.3672 0.405029 81.0208 0.520563 80.8072 0.749386C80.5926 0.979331 80.4858 1.35061 80.4858 1.86209V4.65396C80.4858 4.92317 80.4727 5.20695 80.4477 5.5042C80.4226 5.80144 80.3213 6.08411 80.1448 6.35443L78.4441 8.90289C78.2927 9.11938 78.1543 9.28763 78.028 9.40877C77.9016 9.52991 77.7382 9.59048 77.5366 9.59048H77.0834C76.8818 9.59048 76.7119 9.52991 76.5735 9.40877C76.434 9.28763 76.3022 9.11938 76.1769 8.90289L74.5144 6.35443C74.3379 6.08523 74.2366 5.80144 74.2115 5.5042C74.1865 5.20807 74.1734 4.92429 74.1734 4.65396V1.86209C74.1734 1.35061 74.0666 0.979331 73.852 0.749386C73.6373 0.520563 73.2909 0.405029 72.8126 0.405029H66.9937C66.5154 0.405029 66.169 0.520563 65.9554 0.749386C65.7408 0.979331 65.634 1.35061 65.634 1.86209V4.97813C65.634 6.21871 65.7277 7.1497 65.9173 7.77C66.1058 8.39141 66.4904 9.11938 67.0689 9.95503L70.1292 14.3655L67.0689 18.7759C66.5143 19.6127 66.1363 20.3407 65.9358 20.961C65.7343 21.5824 65.634 22.5123 65.634 23.7528V28.0825C65.634 28.5951 65.7408 28.9664 65.9554 29.1952C66.169 29.4252 66.5154 29.5396 66.9937 29.5396H72.7374C73.2157 29.5396 73.5622 29.4252 73.7768 29.1952C73.9914 28.9664 74.0982 28.5951 74.0982 28.0825Z" fill="white"/>
<path d="M70.0529 24.0771V25.8976H69.6749V24.0771C69.6749 23.4837 69.6945 22.924 69.7315 22.3979C69.7696 21.8719 69.9396 21.3929 70.2414 20.9611L74.7758 14.3252L70.2414 7.77008C69.9636 7.33935 69.8001 6.85927 69.75 6.33433C69.6999 5.80826 69.6749 5.24854 69.6749 4.65517V4.04834H70.0529V4.65517C70.0529 5.22162 70.078 5.76115 70.1281 6.27376C70.1782 6.78637 70.3296 7.23167 70.5813 7.60856L75.1157 14.1637H79.612L83.9961 7.60856C84.2477 7.23055 84.3981 6.78637 84.4493 6.27376C84.4994 5.76115 84.5256 5.22162 84.5256 4.65517V4.04834H84.9025V4.65517C84.9025 5.24854 84.8775 5.80826 84.8273 6.33433C84.7772 6.8604 84.6138 7.33935 84.336 7.77008L79.8778 14.406L84.336 20.9611C84.6138 21.3929 84.7772 21.8719 84.8273 22.3979C84.8775 22.924 84.9025 23.4837 84.9025 24.0771V25.8976H84.5256V24.0771C84.5256 23.5106 84.4994 22.9711 84.4493 22.4585C84.3992 21.947 84.2477 21.5017 83.9961 21.1237L79.575 14.5686H75.0416L70.5824 21.1237C70.3296 21.4748 70.1793 21.9134 70.1292 22.4383C70.078 22.9633 70.0529 23.5095 70.0529 24.0771Z" fill="#030404"/>
<path d="M109.88 29.5385C110.358 29.5385 110.705 29.4241 110.918 29.1941C111.132 28.9653 111.24 28.594 111.24 28.0814V8.2153H116.795C117.273 8.2153 117.62 8.10089 117.833 7.87095C118.047 7.64212 118.155 7.27085 118.155 6.75824V1.86209C118.155 1.35061 118.048 0.979331 117.833 0.749386C117.62 0.520563 117.272 0.405029 116.795 0.405029H96.8443C96.366 0.405029 96.0185 0.520563 95.8049 0.749386C95.5914 0.979331 95.4835 1.35061 95.4835 1.86209V6.75824C95.4835 7.27085 95.5903 7.64212 95.8049 7.87095C96.0185 8.10089 96.366 8.2153 96.8443 8.2153H102.398V28.0825C102.398 28.5951 102.505 28.9664 102.72 29.1952C102.933 29.4252 103.28 29.5396 103.758 29.5396H109.88V29.5385Z" fill="white"/>
<path d="M106.63 25.8972V4.4518H98.884V4.04688H114.753V4.4518H107.007V25.8972H106.63Z" fill="#030404"/>
<path d="M18.3807 69.0515C21.3724 69.0515 23.5917 68.411 25.0396 67.1289C26.4864 65.848 27.2109 63.8749 27.2109 61.2098V49.2168C27.2109 46.5517 26.4864 44.5786 25.0396 43.2977C23.5906 42.0167 21.3713 41.3751 18.3807 41.3751H6.28309C5.82877 41.3751 5.49867 41.485 5.29603 41.7027C5.09229 41.9203 4.99097 42.2736 4.99097 42.7593V67.6674C4.99097 68.1542 5.09229 68.5075 5.29603 68.724C5.49867 68.9416 5.82877 69.0504 6.28309 69.0504H18.3807V69.0515Z" fill="white"/>
<path d="M17.5883 45.2203H9.26031V65.2087H17.5883C18.7377 65.2087 19.6648 65.0876 20.3708 64.843C21.0757 64.5996 21.6215 64.2665 22.004 63.8436C22.3864 63.4208 22.6446 62.9081 22.7764 62.3058C22.9071 61.7035 22.9736 61.0562 22.9736 60.3642V50.1782C22.9736 49.4861 22.9017 48.8333 22.7579 48.2175C22.6141 47.6028 22.3504 47.0778 21.9691 46.6415C21.5856 46.2063 21.0408 45.8597 20.3349 45.604C19.6289 45.3482 18.7137 45.2203 17.5883 45.2203Z" fill="white"/>
<path d="M14.1078 54.7522C14.1078 54.4191 14.0599 54.1376 13.964 53.9065C13.8681 53.6766 13.7124 53.5094 13.4966 53.4073V61.4027H14.1078V54.7522Z" fill="white"/>
<path d="M87.2994 61.7879V48.6799C87.2994 47.501 87.1382 46.4309 86.8146 45.4696C86.4921 44.5084 85.918 43.6828 85.0921 42.9907C84.2663 42.2986 83.13 41.7602 81.6821 41.3755C80.2341 40.9908 78.3973 40.799 76.1715 40.799C73.9468 40.799 72.1034 40.9908 70.6445 41.3755C69.1836 41.7602 68.0418 42.2986 67.216 42.9907C66.3901 43.6828 65.816 44.5084 65.4935 45.4696C65.1699 46.4309 65.0087 47.501 65.0087 48.6799V61.7879C65.0087 62.9668 65.1699 64.0368 65.4935 64.9981C65.816 65.9583 66.3901 66.7793 67.216 67.458C68.0418 68.1377 69.1846 68.6683 70.6445 69.053C72.1034 69.4377 73.9468 69.6295 76.1715 69.6295C78.3973 69.6295 80.2341 69.4377 81.6821 69.053C83.13 68.6683 84.2663 68.1377 85.0921 67.458C85.918 66.7793 86.4921 65.9583 86.8146 64.9981C87.1382 64.0357 87.2994 62.9668 87.2994 61.7879Z" fill="#FF001F"/>
<path d="M20.6413 71.5887C19.8993 72.255 18.9548 72.7609 17.8054 73.1064C16.657 73.453 15.305 73.6257 13.7492 73.6257H1.65164C1.07749 73.6257 0.658046 73.4844 0.395482 73.2028C0.131828 72.9202 0 72.4726 0 71.8579V46.9487C0 46.6156 0.0413907 46.334 0.12637 46.103C0.21026 45.8719 0.335559 45.6801 0.503339 45.5264L5.13472 41.337C5.25347 41.2349 5.41471 41.1508 5.61844 41.0868C5.82217 41.0229 6.04333 40.9904 6.28193 40.9904H18.3795C21.5139 40.9904 23.8302 41.6701 25.326 43.0273C26.8208 44.3857 27.5693 46.4485 27.5693 49.2157V61.2109C27.5693 62.5951 27.3775 63.8054 26.9962 64.8429C26.6127 65.8805 26.0505 66.7453 25.3086 67.4374L20.6413 71.5887ZM18.3795 69.0515C21.3712 69.0515 23.5905 68.411 25.0384 67.1289C26.4852 65.848 27.2098 63.8749 27.2098 61.2098V49.2168C27.2098 46.5517 26.4852 44.5786 25.0384 43.2977C23.5894 42.0167 21.3701 41.3751 18.3795 41.3751H6.28193C5.82762 41.3751 5.49751 41.485 5.29487 41.7026C5.09114 41.9202 4.98981 42.2736 4.98981 42.7592V67.6673C4.98981 68.1541 5.09114 68.5075 5.29487 68.7239C5.49751 68.9416 5.82762 69.0504 6.28193 69.0504H18.3795V69.0515ZM8.90322 65.5922V44.8355H17.5896C18.8099 44.8355 19.798 44.9768 20.5519 45.2584C21.3059 45.541 21.8855 45.919 22.2929 46.3924C22.6993 46.8668 22.9749 47.4299 23.1188 48.0839C23.2626 48.7378 23.3345 49.4355 23.3345 50.1792V60.3652C23.3345 61.1088 23.2691 61.8009 23.1373 62.4403C23.0055 63.0808 22.7363 63.6326 22.3289 64.0936C21.9214 64.5547 21.3364 64.9203 20.5705 65.1895C19.8046 65.4587 18.812 65.5933 17.5907 65.5933H8.90322V65.5922ZM17.5896 45.2202H9.26167V65.2086H17.5896C18.739 65.2086 19.6662 65.0875 20.3722 64.8429C21.0771 64.5995 21.6229 64.2664 22.0053 63.8435C22.3877 63.4206 22.6459 62.908 22.7777 62.3057C22.9085 61.7033 22.9749 61.0561 22.9749 60.364V50.1781C22.9749 49.486 22.903 48.8332 22.7592 48.2174C22.6154 47.6027 22.3518 47.0777 21.9704 46.6414C21.5869 46.2062 21.0422 45.8596 20.3362 45.6038C19.6302 45.3481 18.7151 45.2202 17.5896 45.2202ZM13.1391 48.7176H17.411C17.9851 48.7176 18.41 48.8657 18.6857 49.1596C18.9602 49.4546 19.0975 49.9223 19.0975 50.5628V59.9042C19.0975 60.5446 18.9602 61.0191 18.6857 61.3265C18.41 61.6338 17.9851 61.7875 17.411 61.7875H13.1391V48.7176ZM14.1088 54.7523C14.1088 54.4191 14.0608 54.1376 13.9649 53.9065C13.8691 53.6766 13.7133 53.5095 13.4976 53.4074V61.4027H14.1088V54.7523Z" fill="#030404"/>
<path d="M103.418 69.0907L98.7515 73.2421C98.6556 73.3442 98.5053 73.4339 98.3026 73.5113C98.0989 73.5876 97.8777 73.6268 97.6391 73.6268H92.1111C91.537 73.6268 91.1175 73.4855 90.855 73.204C90.5913 72.9213 90.4595 72.4737 90.4595 71.8591V46.9487C90.4595 46.6156 90.5009 46.3341 90.5859 46.103C90.6697 45.8719 90.795 45.6801 90.9628 45.5264L95.5942 41.337C95.7129 41.2349 95.8742 41.1508 96.0779 41.0868C96.2816 41.0229 96.5028 40.9904 96.7414 40.9904H108.695C111.543 40.9904 113.493 41.6252 114.547 42.8939C115.599 44.1625 116.125 45.7956 116.125 47.7945V49.5623C116.125 50.5112 116.019 51.3368 115.803 52.0412C115.587 52.7467 115.241 53.3165 114.762 53.7517H114.727C115.851 54.0849 116.755 54.7512 117.436 55.7506C118.119 56.75 118.459 58.0063 118.459 59.5183V67.6673C118.459 68.0005 118.418 68.282 118.334 68.5131C118.249 68.743 118.124 68.936 117.956 69.0896L113.29 73.241C113.194 73.343 113.044 73.4328 112.841 73.5102C112.637 73.5864 112.416 73.6257 112.177 73.6257H106.613C106.039 73.6257 105.62 73.4844 105.357 73.2028C105.092 72.9202 104.962 72.4726 104.962 71.8579V65.977C104.962 65.5675 104.89 65.2523 104.746 65.0347C104.602 64.8171 104.338 64.7083 103.956 64.7083H103.92V67.6685C103.92 68.0016 103.878 68.2831 103.794 68.5142C103.711 68.7441 103.584 68.9371 103.418 69.0907Z" fill="#030404"/>
<path d="M80.8758 71.782C80.038 72.5504 78.8657 73.1471 77.3579 73.5688C75.85 73.9917 73.9108 74.2037 71.5422 74.2037C69.1966 74.2037 67.2758 73.9401 65.7811 73.4152C64.2852 72.8891 63.1129 72.1914 62.2631 71.3199C61.4133 70.4483 60.8272 69.4489 60.5036 68.3216C60.1811 67.1943 60.0199 66.0278 60.0199 64.8231V52.8693C60.0199 51.6904 60.1757 50.5957 60.4862 49.5828C60.7967 48.571 61.3599 47.7062 62.1727 46.9883L66.8389 42.837C67.6768 42.0686 68.8436 41.4719 70.3384 41.0502C71.8331 40.6284 73.78 40.4153 76.1736 40.4153C78.5182 40.4153 80.44 40.6206 81.9348 41.03C83.4295 41.4405 84.6029 42.0103 85.4527 42.7405C86.3014 43.4707 86.8821 44.3423 87.1937 45.3541C87.5042 46.3669 87.66 47.4752 87.66 48.6787V61.7867C87.66 62.9656 87.5042 64.0547 87.1937 65.0542C86.8821 66.0536 86.3188 66.9128 85.5061 67.6295L80.8758 71.782ZM87.3015 61.7878V48.6798C87.3015 47.501 87.1403 46.4309 86.8167 45.4696C86.4942 44.5083 85.9201 43.6827 85.0943 42.9907C84.2684 42.2986 83.1321 41.7602 81.6842 41.3754C80.2363 40.9907 78.3994 40.7989 76.1736 40.7989C73.9489 40.7989 72.1055 40.9907 70.6467 41.3754C69.1857 41.7602 68.0439 42.2986 67.2181 42.9907C66.3923 43.6827 65.8181 44.5083 65.4956 45.4696C65.172 46.4309 65.0108 47.501 65.0108 48.6798V61.7878C65.0108 62.9667 65.172 64.0368 65.4956 64.9981C65.8181 65.9582 66.3923 66.7793 67.2181 67.4579C68.0439 68.1377 69.1868 68.6682 70.6467 69.053C72.1055 69.4377 73.9489 69.6295 76.1736 69.6295C78.3994 69.6295 80.2363 69.4377 81.6842 69.053C83.1321 68.6682 84.2684 68.1377 85.0943 67.4579C85.9201 66.7793 86.4942 65.9582 86.8167 64.9981C87.1403 64.0357 87.3015 62.9667 87.3015 61.7878ZM83.3881 60.9028C83.3881 62.4395 82.8739 63.6891 81.8443 64.6504C80.8159 65.6116 78.9017 66.0917 76.1006 66.0917C73.3007 66.0917 71.3984 65.6116 70.3928 64.6504C69.3872 63.6891 68.885 62.4395 68.885 60.9028V49.5637C68.885 48.0259 69.3872 46.7775 70.3928 45.8162C71.3984 44.8549 73.3007 44.3748 76.1006 44.3748C78.9006 44.3748 80.8148 44.8549 81.8443 45.8162C82.8728 46.7775 83.3881 48.0259 83.3881 49.5637V60.9028ZM69.2456 60.9028C69.2456 62.3386 69.725 63.4973 70.6815 64.3811C71.6392 65.265 73.4456 65.707 76.1017 65.707C78.7589 65.707 80.5762 65.265 81.5578 64.3811C82.5383 63.4973 83.0297 62.3386 83.0297 60.9028V49.5637C83.0297 48.1291 82.5383 46.9693 81.5578 46.0843C80.5762 45.2004 78.7579 44.7584 76.1017 44.7584C73.4456 44.7584 71.6392 45.2004 70.6815 46.0843C69.7239 46.9682 69.2456 48.128 69.2456 49.5637V60.9028ZM73.1579 60.4037V50.0629C73.1579 49.5761 73.3366 49.1599 73.6961 48.8133C74.0557 48.4678 74.8815 48.294 76.1725 48.294C77.4646 48.294 78.2905 48.4667 78.6489 48.8133C79.0084 49.1599 79.1882 49.5761 79.1882 50.0629V60.4037C79.1882 60.9163 79.0084 61.3448 78.6489 61.6914C78.2894 62.0368 77.4646 62.2107 76.1725 62.2107C74.8804 62.2107 74.0546 62.038 73.6961 61.6914C73.3377 61.3448 73.1579 60.9163 73.1579 60.4037ZM73.5174 60.4037C73.5174 60.6594 73.5643 60.8837 73.6613 61.0767C73.7571 61.2685 73.9358 61.4289 74.1995 61.5568V54.2535C74.1995 53.9977 74.1515 53.7734 74.0557 53.5805C73.9598 53.3875 73.78 53.2417 73.5174 53.1385V60.4037Z" fill="#030404"/>
<path d="M83.3865 60.9029C83.3865 62.4396 82.8723 63.6891 81.8427 64.6504C80.8142 65.6117 78.9 66.0918 76.099 66.0918C73.299 66.0918 71.3968 65.6117 70.3912 64.6504C69.3856 63.6891 68.8834 62.4396 68.8834 60.9029V49.5638C68.8834 48.026 69.3856 46.7775 70.3912 45.8162C71.3968 44.855 73.299 44.3749 76.099 44.3749C78.8989 44.3749 80.8132 44.855 81.8427 45.8162C82.8712 46.7775 83.3865 48.026 83.3865 49.5638V60.9029Z" fill="#030404"/>
<path d="M73.1588 60.4037V50.063C73.1588 49.5762 73.3374 49.16 73.6969 48.8134C74.0565 48.4679 74.8823 48.2941 76.1733 48.2941C77.4655 48.2941 78.2913 48.4668 78.6497 48.8134C79.0093 49.16 79.189 49.5762 79.189 50.063V60.4037C79.189 60.9164 79.0093 61.3448 78.6497 61.6914C78.2902 62.0369 77.4655 62.2108 76.1733 62.2108C74.8812 62.2108 74.0554 62.038 73.6969 61.6914C73.3385 61.3448 73.1588 60.9164 73.1588 60.4037Z" fill="#030404"/>
<path d="M73.5165 60.4038C73.5165 60.6596 73.5634 60.8839 73.6604 61.0768C73.7562 61.2686 73.9349 61.429 74.1986 61.5569V54.2536C74.1986 53.9979 74.1506 53.7735 74.0548 53.5806C73.9589 53.3877 73.7791 53.2419 73.5165 53.1387V60.4038Z" fill="white"/>
<path d="M57.2545 61.7879V48.6799C57.2545 47.501 57.0933 46.4309 56.7697 45.4696C56.4472 44.5084 55.873 43.6828 55.0472 42.9907C54.2214 42.2986 53.0851 41.7602 51.6371 41.3755C50.1892 40.9908 48.3524 40.799 46.1266 40.799C43.9018 40.799 42.0584 40.9908 40.5996 41.3755C39.1386 41.7602 37.9969 42.2986 37.171 42.9907C36.3452 43.6828 35.7711 44.5084 35.4486 45.4696C35.125 46.4309 34.9637 47.501 34.9637 48.6799V61.7879C34.9637 62.9668 35.125 64.0368 35.4486 64.9981C35.7711 65.9583 36.3452 66.7793 37.171 67.458C37.9969 68.1377 39.1397 68.6683 40.5996 69.053C42.0584 69.4377 43.9018 69.6295 46.1266 69.6295C48.3524 69.6295 50.1892 69.4377 51.6371 69.053C53.0851 68.6683 54.2214 68.1377 55.0472 67.458C55.873 66.7793 56.4472 65.9583 56.7697 64.9981C57.0922 64.0357 57.2545 62.9668 57.2545 61.7879Z" fill="#FF001F"/>
<path d="M50.8309 71.782C49.9931 72.5504 48.8208 73.1471 47.313 73.5688C45.8051 73.9917 43.8658 74.2037 41.4973 74.2037C39.1517 74.2037 37.2309 73.9401 35.7361 73.4152C34.2403 72.8891 33.068 72.1914 32.2182 71.3199C31.3684 70.4483 30.7823 69.4489 30.4587 68.3216C30.1362 67.1943 29.975 66.0278 29.975 64.8231V52.8693C29.975 51.6904 30.1308 50.5957 30.4413 49.5828C30.7518 48.571 31.315 47.7062 32.1278 46.9883L36.794 42.837C37.6318 42.0686 38.7987 41.4719 40.2934 41.0502C41.7882 40.6284 43.7351 40.4153 46.1276 40.4153C48.4722 40.4153 50.394 40.6206 51.8888 41.03C53.3835 41.4405 54.5569 42.0103 55.4067 42.7405C56.2554 43.4707 56.8361 44.3423 57.1477 45.3541C57.4582 46.3669 57.614 47.4752 57.614 48.6787V61.7867C57.614 62.9656 57.4582 64.0547 57.1477 65.0542C56.8361 66.0536 56.2728 66.9128 55.4601 67.6295L50.8309 71.782ZM57.2566 61.7878V48.6798C57.2566 47.501 57.0954 46.4309 56.7718 45.4696C56.4493 44.5083 55.8752 43.6827 55.0494 42.9907C54.2235 42.2986 53.0872 41.7602 51.6393 41.3754C50.1914 40.9907 48.3545 40.7989 46.1287 40.7989C43.904 40.7989 42.0606 40.9907 40.6018 41.3754C39.1408 41.7602 37.999 42.2986 37.1732 42.9907C36.3473 43.6827 35.7732 44.5083 35.4507 45.4696C35.1271 46.4309 34.9659 47.501 34.9659 48.6798V61.7878C34.9659 62.9667 35.1271 64.0368 35.4507 64.9981C35.7732 65.9582 36.3473 66.7793 37.1732 67.4579C37.999 68.1377 39.1418 68.6682 40.6018 69.053C42.0606 69.4377 43.904 69.6295 46.1287 69.6295C48.3545 69.6295 50.1914 69.4377 51.6393 69.053C53.0872 68.6682 54.2235 68.1377 55.0494 67.4579C55.8752 66.7793 56.4493 65.9582 56.7718 64.9981C57.0943 64.0357 57.2566 62.9667 57.2566 61.7878ZM53.3432 60.9028C53.3432 62.4395 52.829 63.6891 51.7994 64.6504C50.7699 65.6116 48.8567 66.0917 46.0557 66.0917C43.2557 66.0917 41.3535 65.6116 40.3479 64.6504C39.3423 63.6891 38.8401 62.4395 38.8401 60.9028V49.5637C38.8401 48.0259 39.3423 46.7775 40.3479 45.8162C41.3535 44.8549 43.2557 44.3748 46.0557 44.3748C48.8557 44.3748 50.7699 44.8549 51.7994 45.8162C52.829 46.7775 53.3432 48.0259 53.3432 49.5637V60.9028ZM39.1996 60.9028C39.1996 62.3386 39.679 63.4973 40.6355 64.3811C41.5932 65.265 43.3995 65.707 46.0557 65.707C48.7129 65.707 50.5302 65.265 51.5118 64.3811C52.4923 63.4973 52.9837 62.3386 52.9837 60.9028V49.5637C52.9837 48.1291 52.4923 46.9693 51.5118 46.0843C50.5302 45.2004 48.7118 44.7584 46.0557 44.7584C43.3995 44.7584 41.5932 45.2004 40.6355 46.0843C39.6779 46.9682 39.1996 48.128 39.1996 49.5637V60.9028ZM43.113 60.4037V50.0629C43.113 49.5761 43.2917 49.1599 43.6512 48.8133C44.0107 48.4678 44.8366 48.294 46.1276 48.294C47.4197 48.294 48.2455 48.4667 48.604 48.8133C48.9635 49.1599 49.1433 49.5761 49.1433 50.0629V60.4037C49.1433 60.9163 48.9635 61.3448 48.604 61.6914C48.2445 62.0368 47.4197 62.2107 46.1276 62.2107C44.8355 62.2107 44.0096 62.038 43.6512 61.6914C43.2917 61.3448 43.113 60.9163 43.113 60.4037ZM43.4725 60.4037C43.4725 60.6594 43.5194 60.8837 43.6163 61.0767C43.7122 61.2685 43.8909 61.4289 44.1546 61.5568V54.2535C44.1546 53.9977 44.1066 53.7734 44.0107 53.5805C43.9149 53.3875 43.7351 53.2417 43.4725 53.1385V60.4037Z" fill="#030404"/>
<path d="M53.3416 60.9029C53.3416 62.4396 52.8274 63.6891 51.7978 64.6504C50.7682 65.6117 48.8551 66.0918 46.0541 66.0918C43.2541 66.0918 41.3519 65.6117 40.3463 64.6504C39.3407 63.6891 38.8384 62.4396 38.8384 60.9029V49.5638C38.8384 48.026 39.3407 46.7775 40.3463 45.8162C41.3519 44.855 43.2541 44.3749 46.0541 44.3749C48.854 44.3749 50.7682 44.855 51.7978 45.8162C52.8274 46.7775 53.3416 48.026 53.3416 49.5638V60.9029Z" fill="#030404"/>
<path d="M43.1138 60.4037V50.063C43.1138 49.5762 43.2925 49.16 43.652 48.8134C44.0116 48.4679 44.8374 48.2941 46.1284 48.2941C47.4205 48.2941 48.2464 48.4668 48.6048 48.8134C48.9643 49.16 49.1441 49.5762 49.1441 50.063V60.4037C49.1441 60.9164 48.9643 61.3448 48.6048 61.6914C48.2453 62.0369 47.4205 62.2108 46.1284 62.2108C44.8363 62.2108 44.0105 62.038 43.652 61.6914C43.2925 61.3448 43.1138 60.9164 43.1138 60.4037Z" fill="#030404"/>
<path d="M43.4716 60.4038C43.4716 60.6596 43.5185 60.8839 43.6154 61.0768C43.7113 61.2686 43.89 61.429 44.1536 61.5569V54.2536C44.1536 53.9979 44.1057 53.7735 44.0098 53.5806C43.9139 53.3877 43.7342 53.2419 43.4716 53.1387V60.4038Z" fill="white"/>
<path d="M74.1621 61.7874C73.6064 61.7874 73.1565 61.3242 73.1565 60.7521V53.6642C73.1565 53.0922 73.6064 52.6289 74.1621 52.6289C74.7177 52.6289 75.1677 53.0922 75.1677 53.6642V60.7521C75.1677 61.3231 74.7177 61.7874 74.1621 61.7874Z" fill="white"/>
<path d="M43.7955 61.7874C43.2399 61.7874 42.7899 61.3242 42.7899 60.7521V53.6642C42.7899 53.0922 43.2399 52.6289 43.7955 52.6289C44.3511 52.6289 44.8011 53.0922 44.8011 53.6642V60.7521C44.8011 61.3231 44.3511 61.7874 43.7955 61.7874Z" fill="white"/>
<path d="M102.268 69.0519C102.723 69.0519 103.053 68.9431 103.255 68.7254C103.458 68.5078 103.561 68.1556 103.561 67.6688V60.1345H108.586C109.089 60.1345 109.442 60.2691 109.645 60.5383C109.849 60.8075 109.951 61.2236 109.951 61.7878V67.6688C109.951 68.1556 110.053 68.509 110.256 68.7254C110.459 68.9431 110.789 69.0519 111.244 69.0519H116.808C117.261 69.0519 117.591 68.9431 117.795 68.7254C117.998 68.5078 118.1 68.1556 118.1 67.6688V59.5198C118.1 57.9046 117.699 56.6113 116.898 55.6377C116.095 54.664 115.049 54.0998 113.757 53.9462C114.499 53.613 115.019 53.069 115.318 52.3119C115.617 51.557 115.767 50.6394 115.767 49.5637V47.796C115.767 45.9003 115.258 44.3558 114.242 43.1645C113.224 41.9722 111.376 41.3766 108.696 41.3766H96.7426C96.2883 41.3766 95.9581 41.4865 95.7555 41.7041C95.5518 41.9217 95.4504 42.2751 95.4504 42.7607V67.6688C95.4504 68.1556 95.5518 68.509 95.7555 68.7254C95.9581 68.9431 96.2883 69.0519 96.7426 69.0519H102.268Z" fill="white"/>
<path d="M99.6825 65.5927H99.3229V44.8359H107.507C108.895 44.8359 109.924 45.2521 110.594 46.0844C111.264 46.9178 111.599 47.9621 111.599 49.2172V51.87C111.599 53.0489 111.455 54.0169 111.169 54.7718C110.881 55.5278 110.308 56.0472 109.446 56.3287H109.841C111.301 56.3287 112.389 56.6809 113.107 57.3853C113.825 58.0897 114.185 59.1093 114.185 60.4408V65.5915H113.825V60.4408C113.825 59.1856 113.501 58.2434 112.855 57.6153C112.21 56.9882 111.205 56.6742 109.841 56.6742H99.6825V65.5927Z" fill="#030404"/>
<path d="M107.511 45.2208H99.6868V56.33H107.511C108.995 56.33 109.988 55.9452 110.491 55.1769C110.993 54.4085 111.245 53.3194 111.245 51.9094V49.2174C111.245 48.0396 110.94 47.0783 110.33 46.3347C109.719 45.5921 108.778 45.2208 107.511 45.2208Z" fill="white"/>
<path d="M103.562 48.2953H106.254C106.876 48.2953 107.295 48.468 107.511 48.8146C107.726 49.1612 107.834 49.5897 107.834 50.1023V51.4091C107.834 51.9217 107.726 52.3502 107.511 52.6968C107.295 53.0434 106.876 53.2161 106.254 53.2161H103.562V48.2953Z" fill="#030404"/>
</g>
</svg>
