<svg width="29" height="28" viewBox="0 0 29 28" fill="none" xmlns="http://www.w3.org/2000/svg">
<path d="M14.7857 0C6.93476 0 0.570312 6.26801 0.570312 14C0.570312 21.732 6.93476 28 14.7857 28C22.6367 28 29.0011 21.732 29.0011 14C29.0011 6.26801 22.6367 0 14.7857 0ZM21.3481 17.2487C21.3449 17.4644 21.3124 17.6774 21.2602 17.8871C21.1552 18.309 20.9643 18.6876 20.6679 19.0116C20.3959 19.309 20.0661 19.5261 19.6935 19.682C19.4007 19.8046 19.0953 19.8821 18.7818 19.9321C18.5917 19.9624 18.3999 19.9736 18.2086 19.9906C18.0147 20.0078 17.8258 19.979 17.6368 19.9423C16.5501 19.7313 15.5208 19.3601 14.5392 18.8589C12.7144 17.927 11.2017 16.6339 9.97254 15.015C9.39084 14.2488 8.89772 13.43 8.47246 12.5703C8.36851 12.3601 8.31302 12.1397 8.27994 11.9108C8.22983 11.5642 8.21059 11.2161 8.23152 10.8669C8.29622 9.78746 8.73839 8.89358 9.59428 8.20757C9.74682 8.0853 9.92639 8.02008 10.125 8.01256C10.419 8.00142 10.7131 8.00153 11.0069 8.01183C11.1814 8.01796 11.3188 8.1029 11.3995 8.25424C11.4834 8.4116 11.5538 8.57614 11.6262 8.73917C11.7259 8.96342 11.8218 9.18929 11.9199 9.41421C11.9331 9.44462 11.95 9.47348 11.9652 9.50305C12.0599 9.62197 12.1025 9.76635 12.1605 9.90226C12.3081 10.2478 12.4604 10.5912 12.6101 10.9358C12.7112 11.1688 12.7011 11.399 12.5659 11.6183C12.3833 11.9145 12.1579 12.1788 11.9297 12.4408C11.8414 12.5421 11.7448 12.6363 11.6625 12.7425C11.5557 12.8801 11.5445 13.0209 11.6314 13.1776C11.86 13.5894 12.1232 13.9783 12.4281 14.338C13.09 15.1189 13.8624 15.7765 14.736 16.3192C15.1031 16.5472 15.4784 16.7593 15.8837 16.9162C16.0359 16.975 16.1945 17.0079 16.3557 17.0243C16.5116 17.0402 16.6353 16.9888 16.7368 16.8578C17.0614 16.439 17.4072 16.0365 17.7283 15.6146C17.8878 15.4049 18.1009 15.3468 18.3521 15.4548C18.7386 15.6211 19.1217 15.7956 19.5009 15.9779C19.5183 15.9862 19.5329 15.9974 19.5396 16.0162C19.5965 16.0442 19.6528 16.0736 19.7106 16.1C20.1 16.2779 20.4896 16.4551 20.8792 16.6328C20.9475 16.6639 21.0147 16.697 21.0773 16.739C21.2601 16.8616 21.3513 17.0333 21.3481 17.2487Z" fill="black"/>
</svg>
