<svg width="143" height="20" viewBox="0 0 143 20" fill="none" xmlns="http://www.w3.org/2000/svg">
<path d="M7.8248 17.1627L4.97597 19.6984C4.9172 19.7609 4.82557 19.8155 4.70171 19.8624C4.57785 19.9093 4.75226 19.9327 4.60628 19.9327H1.31888C0.967515 19.9327 0.40192 19.8468 0.241405 19.6743C0.0802576 19.5025 0 19.2291 0 18.853V3.63964C0 3.43658 0.025278 3.26411 0.0770979 3.12288C0.128286 2.9823 0.204752 2.8645 0.307128 2.77078L3.13447 0.212336C3.20715 0.149856 3.30573 0.0990904 3.43022 0.0600402C3.55409 0.02099 3.68932 0.00146484 3.83594 0.00146484H6.11538C6.43704 0.00146484 6.70688 0.056786 6.92617 0.166127C7.14546 0.276118 7.36411 0.455749 7.5834 0.706321L9.09565 2.58464L11.7479 0.212336C11.8206 0.149856 11.9198 0.0990904 12.0437 0.0600402C12.1676 0.02099 12.3028 0.00146484 12.4494 0.00146484H15.7368C16.0875 0.00146484 16.3429 0.0880262 16.5034 0.259847C16.6645 0.432319 16.7448 0.705671 16.7448 1.0812V16.2945C16.7448 16.4982 16.7189 16.6701 16.6677 16.8106C16.6165 16.9519 16.54 17.069 16.4376 17.1627L13.5888 19.6984C13.53 19.7609 13.4384 19.8155 13.3146 19.8624C13.1907 19.9093 13.3657 19.9327 13.2198 19.9327H9.93236C9.58162 19.9327 9.0154 19.8468 8.85488 19.6743C8.69373 19.5018 8.61411 19.2278 8.61411 18.8523V16.0583L8.13193 15.4244V16.2932C8.13193 16.4969 8.10602 16.6688 8.05483 16.8093C8.00365 16.9519 7.92655 17.069 7.8248 17.1627Z" fill="#030404"/>
<path d="M30.1844 19.9333H20.0144C19.6631 19.9333 19.0975 19.8474 18.937 19.6749C18.7758 19.5024 18.6956 19.2284 18.6956 18.8529V3.63956C18.6956 3.4365 18.7208 3.26403 18.7727 3.1228C18.8238 2.98222 18.9003 2.86442 19.0027 2.77069L21.8307 0.211604C21.9033 0.149123 22.0019 0.098358 22.1264 0.0593078C22.2503 0.0202575 22.3855 0.000732422 22.5321 0.000732422H32.7015C33.0522 0.000732422 33.3081 0.0872937 33.4686 0.259115C33.6292 0.431587 33.7101 0.704938 33.7101 1.08047V3.82765C33.7101 4.03137 33.6841 4.20319 33.633 4.34442C33.5811 4.485 33.5047 4.6028 33.4029 4.69652L31.5178 6.36332C31.6638 6.44142 31.77 6.55922 31.8357 6.71542C31.9014 6.87227 31.9343 7.07598 31.9343 7.3259V9.83813C31.9343 10.0418 31.9084 10.2137 31.8572 10.3549C31.8054 10.4955 31.7295 10.6133 31.6271 10.707L29.6763 12.4675H32.7008C33.0516 12.4675 33.3075 12.5534 33.468 12.7259C33.6285 12.8984 33.7094 13.1724 33.7094 13.5479V16.2951C33.7094 16.4988 33.6835 16.6706 33.6323 16.8112C33.5805 16.9524 33.504 17.0696 33.4023 17.1633L30.5528 19.699C30.4947 19.7614 30.4031 19.8161 30.2792 19.863C30.1547 19.9098 30.3298 19.9333 30.1844 19.9333Z" fill="#030404"/>
<path d="M42.8916 17.1626L40.0428 19.6982C39.9846 19.7607 39.893 19.8154 39.7691 19.8622C39.6446 19.9091 39.8197 19.9325 39.6737 19.9325H36.3421C35.9913 19.9325 35.4251 19.8466 35.2646 19.6742C35.1034 19.5017 35.0238 19.2277 35.0238 18.8521V16.3399C35.0238 15.5732 35.0819 15.0018 35.1989 14.6263C35.3158 14.2507 35.5496 13.8127 35.9003 13.3116L37.5883 10.8937L35.9003 8.47585C35.5496 7.97536 35.3158 7.53669 35.1989 7.16116C35.0819 6.78563 35.0238 6.21419 35.0238 5.44686V3.63948C35.0238 3.43642 35.0491 3.26395 35.1003 3.12272C35.1515 2.98214 35.2279 2.86433 35.3309 2.77061L38.1583 0.211522C38.231 0.149042 38.3302 0.0982764 38.454 0.0592262C38.5779 0.0201759 38.7131 0.000650837 38.8597 0.000650837H42.235C42.5857 0.000650837 42.8417 0.0872122 43.0022 0.259033C43.1627 0.431505 43.2436 0.704857 43.2436 1.08039V2.70032C43.2436 2.8409 43.2467 2.98604 43.2543 3.13443C43.2619 3.28347 43.3093 3.42015 43.3965 3.54511L43.6379 3.92064V3.63883C43.6379 3.43577 43.6632 3.2633 43.715 3.12207C43.7662 2.98148 43.8427 2.86368 43.945 2.76996L46.7724 0.210871C46.8451 0.148391 46.9443 0.0976256 47.0688 0.0585753C47.1926 0.0195251 47.3279 0 47.4739 0H50.8055C51.1569 0 51.4122 0.0865613 51.5727 0.258382C51.7332 0.430854 51.8141 0.704206 51.8141 1.07974V2.88776C51.8141 3.65445 51.7553 4.22589 51.6384 4.60142C51.5215 4.97695 51.2877 5.41562 50.9369 5.91611L49.249 8.3574L50.9369 10.7525C51.2877 11.2536 51.5209 11.6916 51.6384 12.0672C51.7553 12.4427 51.8141 13.0141 51.8141 13.7815V16.2937C51.8141 16.4974 51.7882 16.6692 51.737 16.8098C51.6852 16.9511 51.6093 17.0682 51.507 17.1619L48.6575 19.6976C48.5994 19.7601 48.5077 19.8147 48.3839 19.8616C48.2594 19.9085 48.4344 19.9319 48.2884 19.9319H44.9568C44.6061 19.9319 44.0398 19.846 43.88 19.6735C43.7188 19.501 43.6385 19.227 43.6385 18.8515V16.5274C43.6385 16.3868 43.6348 16.2455 43.6272 16.105C43.6196 15.9637 43.5728 15.8231 43.485 15.6826L43.2 15.2602V16.2931C43.2 16.4968 43.1747 16.6686 43.1235 16.8092C43.0704 16.9517 42.994 17.0689 42.8916 17.1626Z" fill="#030404"/>
<path d="M61.2185 19.9331H57.6682C57.3175 19.9331 56.7513 19.8472 56.5908 19.6747C56.4296 19.5023 56.3494 19.2283 56.3494 18.8527V7.56069H53.347C52.9956 7.56069 52.7403 7.47478 52.5798 7.30231C52.4186 7.13049 52.3384 6.85649 52.3384 6.48096V3.6394C52.3384 3.43634 52.3637 3.26387 52.4155 3.12264C52.4667 2.98205 52.5431 2.86425 52.6455 2.77053L55.4728 0.212092C55.5455 0.149612 55.6441 0.0988463 55.7686 0.059796C55.8925 0.0207458 56.0277 0.0012207 56.1743 0.0012207H67.7466C68.0973 0.0012207 68.3526 0.087782 68.5131 0.259603C68.6743 0.432075 68.7545 0.705426 68.7545 1.08096V3.92186C68.7545 4.12558 68.7286 4.2974 68.6774 4.43863C68.6263 4.57921 68.5498 4.69701 68.4474 4.79073L65.5986 7.32639C65.5398 7.38952 65.4482 7.44354 65.3243 7.4904C65.2005 7.53726 65.0652 7.56069 64.9192 7.56069H64.7436V16.2943C64.7436 16.498 64.7176 16.6698 64.6665 16.8104C64.6153 16.9516 64.5388 17.0688 64.4364 17.1625L61.5876 19.6982C61.5288 19.7606 61.4372 19.8153 61.3133 19.8622C61.1895 19.9097 61.3645 19.9331 61.2185 19.9331Z" fill="#030404"/>
<path d="M84.9489 16.6166C86.6843 16.6166 87.9715 16.245 88.8114 15.5011C89.6506 14.7578 90.0709 13.613 90.0709 12.0666V5.10786C90.0709 3.56147 89.6506 2.41665 88.8114 1.6734C87.9709 0.93014 86.6836 0.557861 84.9489 0.557861H77.9317C77.6682 0.557861 77.4767 0.621643 77.3592 0.747906C77.241 0.874168 77.1823 1.07918 77.1823 1.36099V15.8135C77.1823 16.0959 77.241 16.301 77.3592 16.4266C77.4767 16.5528 77.6682 16.616 77.9317 16.616H84.9489V16.6166Z" fill="white"/>
<path d="M84.4909 2.78882H79.6603V14.3867H84.4909C85.1576 14.3867 85.6954 14.3164 86.1049 14.1746C86.5138 14.0333 86.8304 13.84 87.0522 13.5947C87.274 13.3493 87.4238 13.0519 87.5002 12.7024C87.5761 12.3529 87.6146 11.9773 87.6146 11.5758V5.66552C87.6146 5.26395 87.5729 4.88516 87.4895 4.52785C87.4061 4.1712 87.2532 3.8666 87.032 3.61343C86.8095 3.3609 86.4935 3.1598 86.084 3.0114C85.6745 2.86301 85.1437 2.78882 84.4909 2.78882Z" fill="white"/>
<path d="M82.4727 8.31966C82.4727 8.12636 82.4449 7.963 82.3893 7.82893C82.3337 7.69551 82.2433 7.59853 82.1182 7.53931V12.1785H82.4727V8.31966Z" fill="white"/>
<path d="M124.926 12.4016V4.79593C124.926 4.1119 124.832 3.491 124.645 2.93323C124.458 2.37546 124.125 1.89645 123.646 1.49488C123.167 1.09331 122.507 0.780912 121.668 0.557675C120.828 0.334438 119.762 0.223145 118.471 0.223145C117.181 0.223145 116.111 0.334438 115.265 0.557675C114.418 0.780912 113.756 1.09331 113.277 1.49488C112.798 1.89645 112.464 2.37546 112.277 2.93323C112.09 3.491 111.996 4.1119 111.996 4.79593V12.4016C111.996 13.0856 112.09 13.7065 112.277 14.2643C112.464 14.8214 112.798 15.2978 113.277 15.6916C113.756 16.086 114.418 16.3938 115.265 16.6171C116.111 16.8403 117.181 16.9516 118.471 16.9516C119.762 16.9516 120.828 16.8403 121.668 16.6171C122.507 16.3938 123.167 16.086 123.646 15.6916C124.125 15.2978 124.458 14.8214 124.645 14.2643C124.832 13.7059 124.926 13.0856 124.926 12.4016Z" fill="#FF001F"/>
<path d="M86.2611 18.0887C85.8308 18.4753 85.2829 18.7688 84.6162 18.9692C83.9501 19.1703 83.1658 19.2706 82.2634 19.2706H75.2462C74.9132 19.2706 74.6699 19.1886 74.5176 19.0252C74.3647 18.8612 74.2882 18.6015 74.2882 18.2449V3.79172C74.2882 3.59842 74.3122 3.43506 74.3615 3.30099C74.4102 3.16692 74.4828 3.05562 74.5802 2.96646L77.2666 0.535581C77.3355 0.476355 77.429 0.427542 77.5472 0.390445C77.6653 0.353347 77.7936 0.334473 77.932 0.334473H84.9492C86.7673 0.334473 88.1108 0.72888 88.9785 1.51639C89.8455 2.30456 90.2797 3.50145 90.2797 5.10706V12.0671C90.2797 12.8702 90.1685 13.5725 89.9473 14.1745C89.7248 14.7765 89.3988 15.2783 88.9684 15.6799L86.2611 18.0887ZM84.9492 16.6165C86.6845 16.6165 87.9718 16.2448 88.8117 15.5009C89.6509 14.7577 90.0712 13.6129 90.0712 12.0665V5.10771C90.0712 3.56132 89.6509 2.4165 88.8117 1.67324C87.9712 0.929989 86.6839 0.55771 84.9492 0.55771H77.932C77.6685 0.55771 77.477 0.621492 77.3595 0.747754C77.2413 0.874017 77.1825 1.07903 77.1825 1.36084V15.8133C77.1825 16.0958 77.2413 16.3008 77.3595 16.4264C77.477 16.5527 77.6685 16.6158 77.932 16.6158H84.9492V16.6165ZM79.4525 14.6093V2.56554H84.491C85.1988 2.56554 85.772 2.64755 86.2093 2.81091C86.6466 2.97492 86.9828 3.19425 87.2192 3.4689C87.4549 3.74421 87.6148 4.07093 87.6982 4.45037C87.7816 4.8298 87.8233 5.23463 87.8233 5.66613V11.5764C87.8233 12.0079 87.7854 12.4095 87.7089 12.7804C87.6325 13.1521 87.4764 13.4723 87.24 13.7398C87.0037 14.0073 86.6643 14.2194 86.22 14.3756C85.7758 14.5318 85.2001 14.6099 84.4917 14.6099H79.4525V14.6093ZM84.491 2.78878H79.6604V14.3867H84.491C85.1577 14.3867 85.6955 14.3164 86.105 14.1745C86.5139 14.0333 86.8305 13.84 87.0523 13.5946C87.2741 13.3493 87.4239 13.0518 87.5004 12.7023C87.5762 12.3528 87.6148 11.9773 87.6148 11.5757V5.66548C87.6148 5.26391 87.5731 4.88513 87.4896 4.52782C87.4062 4.17116 87.2533 3.86657 87.0321 3.61339C86.8097 3.36086 86.4937 3.15976 86.0842 3.01137C85.6747 2.86297 85.1438 2.78878 84.491 2.78878ZM81.9095 4.81809H84.3874C84.7204 4.81809 84.9669 4.904 85.1268 5.07452C85.286 5.24569 85.3657 5.51709 85.3657 5.88872V11.3089C85.3657 11.6805 85.286 11.9558 85.1268 12.1341C84.9669 12.3125 84.7204 12.4016 84.3874 12.4016H81.9095V4.81809ZM82.472 8.31959C82.472 8.12629 82.4441 7.96293 82.3885 7.82886C82.3329 7.69544 82.2426 7.59847 82.1174 7.53924V12.1784H82.472V8.31959Z" fill="#030404"/>
<path d="M134.275 16.6392L131.568 19.048C131.513 19.1072 131.426 19.1593 131.308 19.2042C131.19 19.2485 131.061 19.2712 130.923 19.2712H127.717C127.384 19.2712 127.14 19.1892 126.988 19.0259C126.835 18.8619 126.759 18.6022 126.759 18.2455V3.79172C126.759 3.59842 126.783 3.43506 126.832 3.30099C126.881 3.16692 126.953 3.05562 127.051 2.96646L129.737 0.535581C129.806 0.476355 129.899 0.427542 130.018 0.390445C130.136 0.353347 130.264 0.334473 130.402 0.334473H137.336C138.988 0.334473 140.119 0.702847 140.73 1.43894C141.341 2.17504 141.646 3.12266 141.646 4.28245V5.30817C141.646 5.85878 141.584 6.3378 141.459 6.74652C141.334 7.1559 141.133 7.48652 140.855 7.73905H140.835C141.487 7.93235 142.011 8.31894 142.406 8.89884C142.802 9.47873 143 10.2077 143 11.085V15.8133C143 16.0066 142.976 16.17 142.927 16.3041C142.878 16.4375 142.805 16.5494 142.708 16.6386L140.001 19.0473C139.945 19.1066 139.859 19.1586 139.741 19.2035C139.623 19.2478 139.494 19.2706 139.356 19.2706H136.128C135.795 19.2706 135.552 19.1886 135.4 19.0252C135.246 18.8612 135.17 18.6015 135.17 18.2449V14.8325C135.17 14.595 135.129 14.4121 135.045 14.2858C134.962 14.1596 134.809 14.0964 134.587 14.0964H134.566V15.814C134.566 16.0073 134.542 16.1706 134.493 16.3047C134.445 16.4381 134.372 16.5501 134.275 16.6392Z" fill="#030404"/>
<path d="M121.198 18.2007C120.713 18.6466 120.033 18.9928 119.158 19.2375C118.283 19.4829 117.158 19.6059 115.785 19.6059C114.424 19.6059 113.31 19.453 112.443 19.1484C111.575 18.8431 110.895 18.4383 110.402 17.9326C109.909 17.4269 109.569 16.847 109.382 16.1929C109.195 15.5388 109.101 14.8619 109.101 14.1629V7.22698C109.101 6.54295 109.191 5.90773 109.372 5.32002C109.552 4.73297 109.878 4.23117 110.35 3.81464L113.056 1.40589C113.542 0.960066 114.219 0.613821 115.086 0.369106C115.953 0.124391 117.083 0.000732422 118.471 0.000732422C119.831 0.000732422 120.946 0.119836 121.813 0.357391C122.68 0.595598 123.36 0.926223 123.853 1.34992C124.346 1.77361 124.682 2.27931 124.863 2.86637C125.043 3.45407 125.134 4.0971 125.134 4.79545V12.4011C125.134 13.0852 125.043 13.7171 124.863 14.297C124.682 14.8769 124.356 15.3755 123.884 15.7913L121.198 18.2007ZM124.926 12.4018V4.7961C124.926 4.11207 124.832 3.49117 124.645 2.9334C124.457 2.37564 124.124 1.89662 123.645 1.49505C123.166 1.09349 122.507 0.781086 121.667 0.557849C120.828 0.334612 119.762 0.223319 118.471 0.223319C117.181 0.223319 116.111 0.334612 115.265 0.557849C114.418 0.781086 113.755 1.09349 113.276 1.49505C112.797 1.89662 112.464 2.37564 112.277 2.9334C112.09 3.49117 111.996 4.11207 111.996 4.7961V12.4018C111.996 13.0858 112.09 13.7067 112.277 14.2645C112.464 14.8216 112.797 15.298 113.276 15.6918C113.755 16.0862 114.418 16.394 115.265 16.6173C116.111 16.8405 117.181 16.9518 118.471 16.9518C119.762 16.9518 120.828 16.8405 121.667 16.6173C122.507 16.394 123.166 16.0862 123.645 15.6918C124.124 15.298 124.457 14.8216 124.645 14.2645C124.832 13.7061 124.926 13.0858 124.926 12.4018ZM122.656 11.8883C122.656 12.7799 122.357 13.505 121.76 14.0627C121.164 14.6205 120.053 14.899 118.429 14.899C116.805 14.899 115.701 14.6205 115.118 14.0627C114.535 13.505 114.243 12.7799 114.243 11.8883V5.30896C114.243 4.41666 114.535 3.69228 115.118 3.13451C115.701 2.57675 116.805 2.29819 118.429 2.29819C120.053 2.29819 121.163 2.57675 121.76 3.13451C122.357 3.69228 122.656 4.41666 122.656 5.30896V11.8883ZM114.452 11.8883C114.452 12.7213 114.73 13.3937 115.285 13.9065C115.841 14.4194 116.889 14.6758 118.429 14.6758C119.971 14.6758 121.025 14.4194 121.594 13.9065C122.163 13.3937 122.448 12.7213 122.448 11.8883V5.30896C122.448 4.47654 122.163 3.80357 121.594 3.29006C121.025 2.7772 119.97 2.52077 118.429 2.52077C116.889 2.52077 115.841 2.7772 115.285 3.29006C114.73 3.80292 114.452 4.47589 114.452 5.30896V11.8883ZM116.722 11.5986V5.59858C116.722 5.31612 116.825 5.07466 117.034 4.87355C117.242 4.67309 117.721 4.57221 118.47 4.57221C119.22 4.57221 119.699 4.67244 119.907 4.87355C120.115 5.07466 120.22 5.31612 120.22 5.59858V11.5986C120.22 11.8961 120.115 12.1447 119.907 12.3458C119.698 12.5463 119.22 12.6471 118.47 12.6471C117.721 12.6471 117.242 12.5469 117.034 12.3458C116.826 12.1447 116.722 11.8961 116.722 11.5986ZM116.93 11.5986C116.93 11.747 116.957 11.8772 117.014 11.9892C117.069 12.1004 117.173 12.1935 117.326 12.2677V8.03011C117.326 7.88172 117.298 7.75155 117.242 7.63961C117.187 7.52766 117.083 7.44306 116.93 7.38318V11.5986Z" fill="#030404"/>
<path d="M122.657 11.8882C122.657 12.7798 122.358 13.5049 121.761 14.0626C121.164 14.6204 120.054 14.899 118.429 14.899C116.805 14.899 115.702 14.6204 115.119 14.0626C114.535 13.5049 114.244 12.7798 114.244 11.8882V5.30887C114.244 4.41657 114.535 3.69219 115.119 3.13442C115.702 2.57665 116.805 2.2981 118.429 2.2981C120.054 2.2981 121.164 2.57665 121.761 3.13442C122.358 3.69219 122.657 4.41657 122.657 5.30887V11.8882Z" fill="#030404"/>
<path d="M116.722 11.5987V5.59864C116.722 5.31617 116.826 5.07471 117.034 4.8736C117.243 4.67315 117.722 4.57227 118.471 4.57227C119.22 4.57227 119.699 4.67249 119.907 4.8736C120.116 5.07471 120.22 5.31617 120.22 5.59864V11.5987C120.22 11.8961 120.116 12.1448 119.907 12.3459C119.699 12.5463 119.22 12.6472 118.471 12.6472C117.721 12.6472 117.242 12.547 117.034 12.3459C116.826 12.1448 116.722 11.8961 116.722 11.5987Z" fill="#030404"/>
<path d="M116.931 11.5985C116.931 11.7469 116.958 11.8771 117.014 11.989C117.07 12.1003 117.174 12.1934 117.327 12.2676V8.02999C117.327 7.8816 117.299 7.75143 117.243 7.63949C117.188 7.52754 117.083 7.44293 116.931 7.38306V11.5985Z" fill="white"/>
<path d="M107.5 12.4016V4.79593C107.5 4.1119 107.406 3.491 107.218 2.93323C107.031 2.37546 106.698 1.89645 106.219 1.49488C105.74 1.09331 105.081 0.780912 104.241 0.557675C103.401 0.334438 102.336 0.223145 101.045 0.223145C99.7545 0.223145 98.6852 0.334438 97.839 0.557675C96.9916 0.780912 96.3293 1.09331 95.8503 1.49488C95.3713 1.89645 95.0382 2.37546 94.8512 2.93323C94.6635 3.491 94.5699 4.1119 94.5699 4.79593V12.4016C94.5699 13.0856 94.6635 13.7065 94.8512 14.2643C95.0382 14.8214 95.3713 15.2978 95.8503 15.6916C96.3293 16.086 96.9922 16.3938 97.839 16.6171C98.6852 16.8403 99.7545 16.9516 101.045 16.9516C102.336 16.9516 103.401 16.8403 104.241 16.6171C105.081 16.3938 105.74 16.086 106.219 15.6916C106.698 15.2978 107.031 14.8214 107.218 14.2643C107.405 13.7059 107.5 13.0856 107.5 12.4016Z" fill="#FF001F"/>
<path d="M103.772 18.2007C103.286 18.6466 102.606 18.9928 101.732 19.2375C100.857 19.4829 99.7323 19.6059 98.3584 19.6059C96.9978 19.6059 95.8837 19.453 95.0167 19.1484C94.149 18.8431 93.469 18.4383 92.9761 17.9326C92.4832 17.4269 92.1432 16.847 91.9555 16.1929C91.7685 15.5388 91.6749 14.8619 91.6749 14.1629V7.22698C91.6749 6.54295 91.7653 5.90773 91.9454 5.32002C92.1255 4.73297 92.4522 4.23117 92.9237 3.81464L95.6303 1.40589C96.1163 0.960066 96.7931 0.613821 97.6601 0.369106C98.5272 0.124391 99.6565 0.000732422 101.044 0.000732422C102.404 0.000732422 103.519 0.119836 104.386 0.357391C105.253 0.595598 105.934 0.926223 106.427 1.34992C106.919 1.77361 107.256 2.27931 107.436 2.86637C107.616 3.45407 107.707 4.0971 107.707 4.79545V12.4011C107.707 13.0852 107.616 13.7171 107.436 14.297C107.256 14.8769 106.929 15.3755 106.457 15.7913L103.772 18.2007ZM107.5 12.4018V4.7961C107.5 4.11207 107.406 3.49117 107.218 2.9334C107.031 2.37564 106.698 1.89662 106.219 1.49505C105.74 1.09349 105.081 0.781086 104.241 0.557849C103.401 0.334612 102.336 0.223319 101.045 0.223319C99.7544 0.223319 98.6851 0.334612 97.839 0.557849C96.9915 0.781086 96.3292 1.09349 95.8502 1.49505C95.3712 1.89662 95.0382 2.37564 94.8511 2.9334C94.6634 3.49117 94.5699 4.11207 94.5699 4.7961V12.4018C94.5699 13.0858 94.6634 13.7067 94.8511 14.2645C95.0382 14.8216 95.3712 15.298 95.8502 15.6918C96.3292 16.0862 96.9921 16.394 97.839 16.6173C98.6851 16.8405 99.7544 16.9518 101.045 16.9518C102.336 16.9518 103.401 16.8405 104.241 16.6173C105.081 16.394 105.74 16.0862 106.219 15.6918C106.698 15.298 107.031 14.8216 107.218 14.2645C107.405 13.7061 107.5 13.0858 107.5 12.4018ZM105.23 11.8883C105.23 12.7799 104.931 13.505 104.334 14.0627C103.737 14.6205 102.627 14.899 101.003 14.899C99.3784 14.899 98.275 14.6205 97.6917 14.0627C97.1084 13.505 96.8171 12.7799 96.8171 11.8883V5.30896C96.8171 4.41666 97.1084 3.69228 97.6917 3.13451C98.275 2.57675 99.3784 2.29819 101.003 2.29819C102.627 2.29819 103.737 2.57675 104.334 3.13451C104.931 3.69228 105.23 4.41666 105.23 5.30896V11.8883ZM97.0256 11.8883C97.0256 12.7213 97.3037 13.3937 97.8586 13.9065C98.414 14.4194 99.4618 14.6758 101.003 14.6758C102.544 14.6758 103.598 14.4194 104.167 13.9065C104.736 13.3937 105.021 12.7213 105.021 11.8883V5.30896C105.021 4.47654 104.736 3.80357 104.167 3.29006C103.598 2.7772 102.543 2.52077 101.003 2.52077C99.4618 2.52077 98.414 2.7772 97.8586 3.29006C97.3031 3.80292 97.0256 4.47589 97.0256 5.30896V11.8883ZM99.2956 11.5986V5.59858C99.2956 5.31612 99.3992 5.07466 99.6078 4.87355C99.8163 4.67309 100.295 4.57221 101.044 4.57221C101.794 4.57221 102.273 4.67244 102.481 4.87355C102.689 5.07466 102.793 5.31612 102.793 5.59858V11.5986C102.793 11.8961 102.689 12.1447 102.481 12.3458C102.272 12.5463 101.794 12.6471 101.044 12.6471C100.295 12.6471 99.8157 12.5469 99.6078 12.3458C99.3992 12.1447 99.2956 11.8961 99.2956 11.5986ZM99.5042 11.5986C99.5042 11.747 99.5313 11.8772 99.5876 11.9892C99.6432 12.1004 99.7468 12.1935 99.8998 12.2677V8.03011C99.8998 7.88172 99.8719 7.75155 99.8163 7.63961C99.7607 7.52766 99.6565 7.44306 99.5042 7.38318V11.5986Z" fill="#030404"/>
<path d="M105.229 11.8882C105.229 12.7798 104.931 13.5049 104.334 14.0626C103.737 14.6204 102.627 14.899 101.002 14.899C99.3782 14.899 98.2748 14.6204 97.6915 14.0626C97.1082 13.5049 96.8169 12.7798 96.8169 11.8882V5.30887C96.8169 4.41657 97.1082 3.69219 97.6915 3.13442C98.2748 2.57665 99.3782 2.2981 101.002 2.2981C102.626 2.2981 103.737 2.57665 104.334 3.13442C104.931 3.69219 105.229 4.41657 105.229 5.30887V11.8882Z" fill="#030404"/>
<path d="M99.2949 11.5987V5.59864C99.2949 5.31617 99.3986 5.07471 99.6071 4.8736C99.8156 4.67315 100.295 4.57227 101.044 4.57227C101.793 4.57227 102.272 4.67249 102.48 4.8736C102.688 5.07471 102.793 5.31617 102.793 5.59864V11.5987C102.793 11.8961 102.688 12.1448 102.48 12.3459C102.271 12.5463 101.793 12.6472 101.044 12.6472C100.294 12.6472 99.815 12.547 99.6071 12.3459C99.3986 12.1448 99.2949 11.8961 99.2949 11.5987Z" fill="#030404"/>
<path d="M99.5029 11.5985C99.5029 11.7469 99.5301 11.8771 99.5863 11.989C99.642 12.1003 99.7456 12.1934 99.8985 12.2676V8.02999C99.8985 7.8816 99.8707 7.75143 99.8151 7.63949C99.7595 7.52754 99.6552 7.44293 99.5029 7.38306V11.5985Z" fill="white"/>
<path d="M117.306 12.4017C116.984 12.4017 116.723 12.1329 116.723 11.801V7.68837C116.723 7.35644 116.984 7.08765 117.306 7.08765C117.629 7.08765 117.89 7.35644 117.89 7.68837V11.801C117.89 12.1323 117.629 12.4017 117.306 12.4017Z" fill="white"/>
<path d="M99.6913 12.4017C99.369 12.4017 99.108 12.1329 99.108 11.801V7.68837C99.108 7.35644 99.369 7.08765 99.6913 7.08765C100.014 7.08765 100.275 7.35644 100.275 7.68837V11.801C100.275 12.1323 100.014 12.4017 99.6913 12.4017Z" fill="white"/>
<path d="M7.12395 17.1391C7.40138 17.1391 7.6017 17.0727 7.7262 16.9392C7.85006 16.8065 7.91262 16.5911 7.91262 16.2936V8.54605L11.6607 13.4059V16.2936C11.6607 16.5911 11.7226 16.8065 11.8471 16.9392C11.971 17.0727 12.172 17.1391 12.4494 17.1391H15.7368C16.0142 17.1391 16.2152 17.0727 16.339 16.9392C16.4629 16.8065 16.5255 16.5911 16.5255 16.2936V1.0803C16.5255 0.783519 16.4635 0.568092 16.339 0.43467C16.2152 0.3019 16.0136 0.234863 15.7368 0.234863H12.45C12.1726 0.234863 11.9716 0.3019 11.8478 0.43467C11.7233 0.568092 11.6614 0.783519 11.6614 1.0803V6.08133L7.40959 0.869429C7.21937 0.634477 7.026 0.470466 6.8282 0.376095C6.63103 0.282374 6.39342 0.234863 6.11599 0.234863H3.83655C3.55912 0.234863 3.35753 0.3019 3.23367 0.43467C3.1098 0.568092 3.04724 0.783519 3.04724 1.0803V16.2936C3.04724 16.5911 3.10917 16.8065 3.23367 16.9392C3.35753 17.0727 3.55912 17.1391 3.83655 17.1391H7.12395Z" fill="white"/>
<path d="M5.93953 2.53623L14.0051 12.2558V2.34814H14.2244V15.0258H14.0051V12.6079L5.72024 2.65338C5.70571 2.63841 5.68738 2.62214 5.66526 2.60652C5.64314 2.5909 5.62482 2.58309 5.61091 2.58309C5.59575 2.58309 5.585 2.5909 5.57805 2.60652C5.57047 2.62214 5.56731 2.63776 5.56731 2.65338V15.0258H5.34802V2.60652C5.34802 2.5128 5.37709 2.44186 5.43586 2.395C5.494 2.34814 5.55277 2.32471 5.61155 2.32471C5.66969 2.32471 5.72087 2.34033 5.76448 2.37157C5.80808 2.40346 5.86622 2.45813 5.93953 2.53623Z" fill="#030404"/>
<path d="M32.7005 17.1391C32.9779 17.1391 33.1789 17.0727 33.3033 16.9392C33.4272 16.8065 33.4898 16.5911 33.4898 16.2936V13.5464C33.4898 13.249 33.4278 13.0336 33.3033 12.9008C33.1789 12.768 32.9779 12.701 32.7005 12.701H26.6514V10.6814H30.9253C31.2027 10.6814 31.4037 10.6151 31.5282 10.4823C31.6521 10.3495 31.7146 10.1341 31.7146 9.83666V7.32443C31.7146 7.027 31.6527 6.81157 31.5282 6.6788C31.4037 6.54603 31.2027 6.47899 30.9253 6.47899H26.6514V4.67292H32.7005C32.9779 4.67292 33.1789 4.60654 33.3033 4.47311C33.4272 4.34034 33.4898 4.12492 33.4898 3.82748V1.0803C33.4898 0.783519 33.4278 0.568092 33.3033 0.43467C33.1789 0.3019 32.9779 0.234863 32.7005 0.234863H22.5311C22.2537 0.234863 22.0521 0.3019 21.9282 0.43467C21.8044 0.568092 21.7418 0.783519 21.7418 1.0803V16.2936C21.7418 16.5911 21.8038 16.8065 21.9282 16.9392C22.0521 17.0727 22.2537 17.1391 22.5311 17.1391H32.7005Z" fill="white"/>
<path d="M31.5158 14.7915V15.0265H24.1302V2.34814H31.5158V2.5831H24.3495V8.47578H29.7413V8.71073H24.3495V14.7915H31.5158Z" fill="#030404"/>
<path d="M42.9797 16.2943V13.9701C42.9797 13.8139 42.9866 13.6493 43.0018 13.4768C43.0157 13.305 43.0745 13.1403 43.1769 12.9835L44.1633 11.5041C44.2512 11.3629 44.3308 11.262 44.4041 11.1989C44.4768 11.1364 44.5716 11.1051 44.6891 11.1051H44.9962C45.1132 11.1051 45.2079 11.1364 45.2813 11.1989C45.3539 11.262 45.4348 11.3629 45.5227 11.5041L46.487 12.9835C46.5894 13.1397 46.6482 13.3043 46.6627 13.4768C46.6766 13.6493 46.6848 13.8133 46.6848 13.9701V16.2943C46.6848 16.5917 46.7467 16.8071 46.8712 16.9399C46.9951 17.0733 47.1961 17.1397 47.4735 17.1397H50.8051C51.0826 17.1397 51.2835 17.0733 51.408 16.9399C51.5319 16.8071 51.5944 16.5917 51.5944 16.2943V13.782C51.5944 13.0622 51.5395 12.522 51.4301 12.1621C51.3208 11.8022 51.0977 11.3798 50.7615 10.8943L48.9864 8.35861L50.7615 5.77609C51.0832 5.29122 51.3025 4.86882 51.4188 4.50826C51.5357 4.14835 51.5944 3.60815 51.5944 2.88833V1.0803C51.5944 0.783519 51.5325 0.568092 51.408 0.43467C51.2835 0.3019 51.0826 0.234863 50.8051 0.234863H47.4735C47.1961 0.234863 46.9951 0.3019 46.8712 0.43467C46.7467 0.568092 46.6848 0.783519 46.6848 1.0803V2.70023C46.6848 2.85644 46.6772 3.0211 46.6627 3.19357C46.6482 3.36604 46.5894 3.53005 46.487 3.6869L45.5005 5.16561C45.4127 5.29122 45.3324 5.38884 45.2591 5.45913C45.1858 5.52942 45.091 5.56457 44.9741 5.56457H44.7112C44.5943 5.56457 44.4957 5.52942 44.4155 5.45913C44.3346 5.38884 44.2581 5.29122 44.1854 5.16561L43.2211 3.6869C43.1187 3.5307 43.0599 3.36604 43.0454 3.19357C43.0309 3.02175 43.0233 2.85709 43.0233 2.70023V1.0803C43.0233 0.783519 42.9614 0.568092 42.8369 0.43467C42.7124 0.3019 42.5114 0.234863 42.234 0.234863H38.8587C38.5813 0.234863 38.3804 0.3019 38.2565 0.43467C38.132 0.568092 38.0701 0.783519 38.0701 1.0803V2.88833C38.0701 3.60815 38.1244 4.14835 38.2344 4.50826C38.3437 4.86882 38.5668 5.29122 38.9023 5.77609L40.6775 8.33518L38.9023 10.8943C38.5807 11.3798 38.3614 11.8022 38.2451 12.1621C38.1282 12.5227 38.0701 13.0622 38.0701 13.782V16.2943C38.0701 16.5917 38.132 16.8071 38.2565 16.9399C38.3804 17.0733 38.5813 17.1397 38.8587 17.1397H42.1904C42.4678 17.1397 42.6688 17.0733 42.7933 16.9399C42.9178 16.8071 42.9797 16.5917 42.9797 16.2943Z" fill="white"/>
<path d="M40.6346 13.9702V15.0265H40.4153V13.9702C40.4153 13.6259 40.4267 13.3012 40.4481 12.9959C40.4703 12.6907 40.5688 12.4128 40.7439 12.1622L43.3741 8.31184L40.7439 4.50835C40.5827 4.25843 40.488 3.97987 40.4589 3.67528C40.4298 3.37004 40.4153 3.04527 40.4153 2.70098V2.34888H40.6346V2.70098C40.6346 3.02965 40.6491 3.3427 40.6782 3.64014C40.7072 3.93757 40.7951 4.19595 40.9411 4.41463L43.5712 8.21812H46.1793L48.7223 4.41463C48.8682 4.1953 48.9555 3.93757 48.9852 3.64014C49.0142 3.3427 49.0294 3.02965 49.0294 2.70098V2.34888H49.248V2.70098C49.248 3.04527 49.2335 3.37004 49.2044 3.67528C49.1754 3.98053 49.0806 4.25843 48.9194 4.50835L46.3335 8.35871L48.9194 12.1622C49.0806 12.4128 49.1754 12.6907 49.2044 12.9959C49.2335 13.3012 49.248 13.6259 49.248 13.9702V15.0265H49.0294V13.9702C49.0294 13.6415 49.0142 13.3285 48.9852 13.0311C48.9561 12.7343 48.8682 12.4759 48.7223 12.2566L46.1578 8.45308H43.5283L40.9417 12.2566C40.7951 12.4603 40.7079 12.7148 40.6788 13.0193C40.6491 13.3239 40.6346 13.6409 40.6346 13.9702Z" fill="#030404"/>
<path d="M63.7352 17.1391C64.0127 17.1391 64.2136 17.0727 64.3375 16.9392C64.4613 16.8065 64.5239 16.591 64.5239 16.2936V4.76664H67.7462C68.0236 4.76664 68.2246 4.70026 68.3485 4.56683C68.4723 4.43406 68.5349 4.21864 68.5349 3.9212V1.0803C68.5349 0.783519 68.473 0.568092 68.3485 0.43467C68.2246 0.3019 68.023 0.234863 67.7462 0.234863H56.174C55.8965 0.234863 55.6949 0.3019 55.5711 0.43467C55.4472 0.568092 55.3846 0.783519 55.3846 1.0803V3.9212C55.3846 4.21864 55.4466 4.43406 55.5711 4.56683C55.6949 4.70026 55.8965 4.76664 56.174 4.76664H59.3956V16.2943C59.3956 16.5917 59.4576 16.8071 59.5821 16.9399C59.7059 17.0733 59.9069 17.1397 60.1843 17.1397H63.7352V17.1391Z" fill="white"/>
<path d="M61.8512 15.0265V2.5831H57.358V2.34814H66.563V2.5831H62.0699V15.0265H61.8512Z" fill="#030404"/>
<path d="M133.608 16.6165C133.872 16.6165 134.063 16.5533 134.181 16.4271C134.298 16.3008 134.358 16.0964 134.358 15.814V11.4423H137.273C137.564 11.4423 137.769 11.5204 137.887 11.6766C138.005 11.8328 138.065 12.0743 138.065 12.4016V15.814C138.065 16.0964 138.124 16.3014 138.242 16.4271C138.359 16.5533 138.551 16.6165 138.814 16.6165H142.042C142.305 16.6165 142.496 16.5533 142.614 16.4271C142.732 16.3008 142.791 16.0964 142.791 15.814V11.0856C142.791 10.1484 142.559 9.39802 142.094 8.83309C141.628 8.26817 141.022 7.94079 140.272 7.85163C140.703 7.65833 141.004 7.34268 141.178 6.90336C141.351 6.46535 141.438 5.93296 141.438 5.30881V4.28309C141.438 3.18318 141.143 2.28697 140.553 1.59578C139.963 0.903944 138.891 0.55835 137.337 0.55835H130.403C130.14 0.55835 129.948 0.622132 129.831 0.748394C129.712 0.874656 129.654 1.07967 129.654 1.36148V15.814C129.654 16.0964 129.712 16.3014 129.831 16.4271C129.948 16.5533 130.14 16.6165 130.403 16.6165H133.608Z" fill="white"/>
<path d="M132.11 14.6094H131.901V2.56567H136.649C137.454 2.56567 138.05 2.80713 138.439 3.29006C138.828 3.77363 139.022 4.37956 139.022 5.10784V6.64707C139.022 7.3311 138.939 7.89278 138.773 8.33079C138.606 8.76945 138.273 9.07079 137.773 9.23415H138.002C138.849 9.23415 139.48 9.43851 139.897 9.84724C140.313 10.256 140.522 10.8476 140.522 11.6201V14.6088H140.313V11.6201C140.313 10.8918 140.126 10.3451 139.751 9.98066C139.377 9.61684 138.793 9.43461 138.002 9.43461H132.11V14.6094Z" fill="#030404"/>
<path d="M136.649 2.78882H132.11V9.23471H136.649C137.51 9.23471 138.085 9.01147 138.377 8.56565C138.669 8.11983 138.815 7.48786 138.815 6.66976V5.10775C138.815 4.42437 138.638 3.8666 138.284 3.4351C137.929 3.00425 137.384 2.78882 136.649 2.78882Z" fill="white"/>
<path d="M134.358 4.57275H135.92C136.281 4.57275 136.523 4.67298 136.648 4.87409C136.774 5.0752 136.836 5.32382 136.836 5.62125V6.37948C136.836 6.67691 136.774 6.92553 136.648 7.12664C136.523 7.32775 136.281 7.42798 135.92 7.42798H134.358V4.57275Z" fill="#030404"/>
</svg>
