<svg width="77" height="49" viewBox="0 0 77 49" fill="none" xmlns="http://www.w3.org/2000/svg">
<path d="M8.76324 19.2148L5.57275 22.0536C5.50693 22.1236 5.4043 22.1848 5.26559 22.2372C5.12687 22.2897 5.32221 22.3159 5.15872 22.3159H1.47705C1.08355 22.3159 0.450123 22.2197 0.270357 22.0267C0.089883 21.8343 0 21.5283 0 21.1071V4.07467C0 3.84733 0.0283096 3.65424 0.0863443 3.49612C0.143671 3.33873 0.229308 3.20684 0.343962 3.10191L3.51039 0.237551C3.59178 0.167599 3.70219 0.110764 3.84161 0.0670442C3.98033 0.0233246 4.13179 0.00146484 4.29598 0.00146484H6.8488C7.20904 0.00146484 7.51125 0.0634009 7.75683 0.185816C8.00242 0.308959 8.2473 0.510069 8.49288 0.790603L10.1865 2.89351L13.1569 0.237551C13.2383 0.167599 13.3494 0.110764 13.4881 0.0670442C13.6268 0.0233246 13.7783 0.00146484 13.9425 0.00146484H17.6241C18.0169 0.00146484 18.3029 0.0983765 18.4826 0.290743C18.6631 0.483837 18.753 0.789874 18.753 1.21031V18.2427C18.753 18.4708 18.724 18.6632 18.6666 18.8206C18.6093 18.9787 18.5237 19.1098 18.409 19.2148L15.2185 22.0536C15.1527 22.1236 15.0501 22.1848 14.9114 22.2372C14.7727 22.2897 14.9687 22.3159 14.8052 22.3159H11.1236C10.7308 22.3159 10.0966 22.2197 9.91685 22.0267C9.73638 21.8336 9.64721 21.5268 9.64721 21.1064V17.9782L9.1072 17.2685V18.2413C9.1072 18.4693 9.07818 18.6617 9.02086 18.8191C8.96353 18.9787 8.87718 19.1098 8.76324 19.2148Z" fill="#030404"/>
<path d="M33.8032 22.3167H22.4136C22.0201 22.3167 21.3866 22.2205 21.2069 22.0274C21.0264 21.8343 20.9365 21.5275 20.9365 21.1071V4.07467C20.9365 3.84733 20.9648 3.65423 21.0229 3.49611C21.0802 3.33872 21.1658 3.20683 21.2805 3.10191L24.4476 0.236818C24.529 0.166867 24.6394 0.110031 24.7788 0.0663118C24.9176 0.0225922 25.069 0.000732422 25.2332 0.000732422H36.6222C37.015 0.000732422 37.3016 0.0976441 37.4814 0.29001C37.6611 0.483105 37.7517 0.789142 37.7517 1.20958V4.28525C37.7517 4.51332 37.7227 4.70569 37.6654 4.86381C37.6073 5.0212 37.5217 5.15308 37.4078 5.25801L35.2966 7.12411C35.4601 7.21155 35.579 7.34343 35.6526 7.51831C35.7262 7.69392 35.763 7.92199 35.763 8.20179V11.0144C35.763 11.2425 35.734 11.4349 35.6766 11.593C35.6186 11.7504 35.5337 11.8823 35.419 11.9872L33.2342 13.9582H36.6215C37.0143 13.9582 37.3009 14.0544 37.4807 14.2475C37.6604 14.4406 37.751 14.7473 37.751 15.1678V18.2435C37.751 18.4715 37.722 18.6639 37.6647 18.8213C37.6066 18.9794 37.521 19.1106 37.4071 19.2155L34.2159 22.0543C34.1507 22.1243 34.0481 22.1855 33.9094 22.238C33.77 22.2904 33.966 22.3167 33.8032 22.3167Z" fill="#030404"/>
<path d="M48.036 19.2148L44.8455 22.0536C44.7804 22.1236 44.6777 22.1848 44.539 22.2372C44.3996 22.2897 44.5957 22.3159 44.4322 22.3159H40.701C40.3082 22.3159 39.674 22.2197 39.4943 22.0266C39.3138 21.8336 39.2246 21.5268 39.2246 21.1063V18.2937C39.2246 17.4354 39.2897 16.7956 39.4207 16.3752C39.5516 15.9547 39.8135 15.4643 40.2062 14.9033L42.0966 12.1963L40.2062 9.48933C39.8135 8.92899 39.5516 8.43788 39.4207 8.01744C39.2897 7.597 39.2246 6.95724 39.2246 6.09815V4.07466C39.2246 3.84732 39.2529 3.65423 39.3102 3.49611C39.3676 3.33872 39.4532 3.20683 39.5686 3.1019L42.735 0.236814C42.8164 0.166863 42.9275 0.110028 43.0662 0.066308C43.2049 0.0225884 43.3564 0.000728659 43.5206 0.000728659H47.3006C47.6934 0.000728659 47.9801 0.0976404 48.1598 0.290006C48.3396 0.483101 48.4302 0.789138 48.4302 1.20957V3.02321C48.4302 3.1806 48.4337 3.34309 48.4422 3.50922C48.4507 3.67609 48.5038 3.82911 48.6015 3.96901L48.8718 4.38944V4.07394C48.8718 3.84659 48.9001 3.6535 48.9582 3.49538C49.0155 3.33799 49.1011 3.2061 49.2158 3.10117L52.3822 0.236086C52.4636 0.166134 52.5747 0.109299 52.7141 0.0655794C52.8529 0.0218598 53.0043 0 53.1678 0H56.899C57.2925 0 57.5784 0.0969117 57.7582 0.289278C57.938 0.482373 58.0286 0.78841 58.0286 1.20885V3.23306C58.0286 4.09142 57.9627 4.73119 57.8318 5.15162C57.7009 5.57206 57.439 6.06318 57.0462 6.62351L55.1558 9.35672L57.0462 12.0382C57.439 12.5993 57.7002 13.0896 57.8318 13.5101C57.9627 13.9305 58.0286 14.5703 58.0286 15.4294V18.242C58.0286 18.4701 57.9995 18.6624 57.9422 18.8198C57.8842 18.9779 57.7993 19.1091 57.6846 19.214L54.4934 22.0529C54.4283 22.1228 54.3257 22.184 54.1869 22.2365C54.0475 22.289 54.2436 22.3152 54.0801 22.3152H50.3489C49.9561 22.3152 49.3219 22.219 49.1429 22.0259C48.9624 21.8328 48.8725 21.5261 48.8725 21.1056V18.5036C48.8725 18.3462 48.8683 18.1881 48.8598 18.0307C48.8513 17.8726 48.7989 17.7152 48.7005 17.5578L48.3814 17.0849V18.2413C48.3814 18.4693 48.353 18.6617 48.2957 18.8191C48.2363 18.9787 48.1506 19.1098 48.036 19.2148Z" fill="#030404"/>
<path d="M68.5604 22.3169H64.5843C64.1915 22.3169 63.5574 22.2207 63.3776 22.0276C63.1971 21.8345 63.1073 21.5278 63.1073 21.1073V8.46509H59.7448C59.3513 8.46509 59.0654 8.36891 58.8856 8.17581C58.7051 7.98344 58.6152 7.67668 58.6152 7.25624V4.07492C58.6152 3.84757 58.6435 3.65448 58.7016 3.49636C58.7589 3.33897 58.8445 3.20708 58.9592 3.10215L62.1256 0.237795C62.207 0.167843 62.3174 0.111008 62.4568 0.0672883C62.5956 0.0235688 62.747 0.00170898 62.9112 0.00170898H75.8714C76.2642 0.00170898 76.5501 0.0986207 76.7298 0.290987C76.9103 0.484082 77.0002 0.790118 77.0002 1.21055V4.39115C77.0002 4.61922 76.9712 4.81159 76.9139 4.96971C76.8565 5.1271 76.7709 5.25899 76.6562 5.36391L73.4657 8.20277C73.3999 8.27345 73.2973 8.33393 73.1586 8.38639C73.0199 8.43886 72.8684 8.46509 72.7049 8.46509H72.5082V18.243C72.5082 18.471 72.4792 18.6634 72.4218 18.8208C72.3645 18.9789 72.2789 19.1101 72.1642 19.215L68.9737 22.0539C68.9079 22.1238 68.8053 22.185 68.6666 22.2375C68.5278 22.2907 68.7239 22.3169 68.5604 22.3169Z" fill="#030404"/>
<path d="M7.97823 19.1887C8.28893 19.1887 8.51328 19.1143 8.65271 18.965C8.79142 18.8163 8.86149 18.5751 8.86149 18.2421V9.56817L13.0591 15.0091V18.2421C13.0591 18.5751 13.1285 18.8163 13.2679 18.965C13.4066 19.1143 13.6317 19.1887 13.9424 19.1887H17.624C17.9347 19.1887 18.1598 19.1143 18.2985 18.965C18.4372 18.8163 18.5073 18.5751 18.5073 18.2421V1.20971C18.5073 0.877444 18.4379 0.636257 18.2985 0.486882C18.1598 0.338236 17.934 0.263184 17.624 0.263184H13.9431C13.6324 0.263184 13.4073 0.338236 13.2686 0.486882C13.1292 0.636257 13.0598 0.877444 13.0598 1.20971V6.80873L8.29813 0.973627C8.0851 0.710581 7.86853 0.526958 7.64701 0.421303C7.42619 0.316376 7.16008 0.263184 6.84938 0.263184H4.29657C3.98587 0.263184 3.7601 0.338236 3.62138 0.486882C3.48266 0.636257 3.4126 0.877444 3.4126 1.20971V18.2421C3.4126 18.5751 3.48196 18.8163 3.62138 18.965C3.7601 19.1143 3.98587 19.1887 4.29657 19.1887H7.97823Z" fill="white"/>
<path d="M6.6517 2.83984L15.6846 13.7216V2.62926H15.9302V16.8228H15.6846V14.1158L6.40612 2.971C6.38984 2.95424 6.36931 2.93602 6.34454 2.91854C6.31977 2.90105 6.29925 2.89231 6.28368 2.89231C6.26669 2.89231 6.25466 2.90105 6.24688 2.91854C6.23838 2.93602 6.23484 2.95351 6.23484 2.971V16.8228H5.98926V2.91854C5.98926 2.81361 6.02181 2.73419 6.08763 2.68172C6.15275 2.62926 6.21857 2.60303 6.28439 2.60303C6.3495 2.60303 6.40682 2.62052 6.45566 2.65549C6.50449 2.6912 6.5696 2.7524 6.6517 2.83984Z" fill="#030404"/>
<path d="M36.622 19.1887C36.9327 19.1887 37.1578 19.1143 37.2972 18.965C37.4359 18.8163 37.506 18.5751 37.506 18.2421V15.1665C37.506 14.8335 37.4367 14.5923 37.2972 14.4436C37.1578 14.295 36.9327 14.2199 36.622 14.2199H29.8476V11.9589H34.634C34.9447 11.9589 35.1698 11.8846 35.3092 11.7359C35.4479 11.5873 35.518 11.3461 35.518 11.0131V8.20047C35.518 7.86747 35.4486 7.62629 35.3092 7.47764C35.1698 7.329 34.9447 7.25394 34.634 7.25394H29.8476V5.23191H36.622C36.9327 5.23191 37.1578 5.15759 37.2972 5.00821C37.4359 4.85957 37.506 4.61838 37.506 4.28538V1.20971C37.506 0.877444 37.4367 0.636257 37.2972 0.486882C37.1578 0.338236 36.9327 0.263184 36.622 0.263184H25.2331C24.9224 0.263184 24.6966 0.338236 24.5579 0.486882C24.4192 0.636257 24.3491 0.877444 24.3491 1.20971V18.2421C24.3491 18.5751 24.4185 18.8163 24.5579 18.965C24.6966 19.1143 24.9224 19.1887 25.2331 19.1887H36.622Z" fill="white"/>
<path d="M35.2958 16.5602V16.8232H27.0244V2.62891H35.2958V2.89195H27.27V9.48924H33.3084V9.75228H27.27V16.5602H35.2958Z" fill="#030404"/>
<path d="M48.1344 18.2429V15.6408C48.1344 15.4659 48.1422 15.2816 48.1592 15.0885C48.1748 14.8961 48.2406 14.7118 48.3552 14.5362L49.46 12.8799C49.5584 12.7218 49.6476 12.6089 49.7297 12.5382C49.8111 12.4682 49.9172 12.4333 50.0489 12.4333H50.3928C50.5238 12.4333 50.6299 12.4682 50.712 12.5382C50.7934 12.6089 50.884 12.7218 50.9824 12.8799L52.0624 14.5362C52.177 14.711 52.2429 14.8954 52.2591 15.0885C52.2747 15.2816 52.2839 15.4652 52.2839 15.6408V18.2429C52.2839 18.5759 52.3533 18.817 52.4927 18.9657C52.6314 19.1151 52.8565 19.1894 53.1672 19.1894H56.8984C57.2091 19.1894 57.4341 19.1151 57.5736 18.9657C57.7123 18.817 57.7823 18.5759 57.7823 18.2429V15.4302C57.7823 14.6243 57.7208 14.0195 57.5983 13.6166C57.4759 13.2136 57.2261 12.7407 56.8495 12.1972L54.8615 9.35831L56.8495 6.46699C57.2098 5.92414 57.4554 5.45124 57.5856 5.04756C57.7165 4.64461 57.7823 4.03983 57.7823 3.23393V1.20971C57.7823 0.877444 57.713 0.636257 57.5736 0.486882C57.4341 0.338236 57.2091 0.263184 56.8984 0.263184H53.1672C52.8565 0.263184 52.6314 0.338236 52.4927 0.486882C52.3533 0.636257 52.2839 0.877444 52.2839 1.20971V3.02335C52.2839 3.19822 52.2754 3.38258 52.2591 3.57567C52.2429 3.76876 52.177 3.95239 52.0624 4.12799L50.9576 5.78351C50.8592 5.92414 50.7693 6.03344 50.6872 6.11213C50.6051 6.19083 50.499 6.23018 50.368 6.23018H50.0736C49.9427 6.23018 49.8323 6.19083 49.7424 6.11213C49.6518 6.03344 49.5662 5.92414 49.4848 5.78351L48.4048 4.12799C48.2901 3.95312 48.2243 3.76876 48.208 3.57567C48.1917 3.3833 48.1833 3.19895 48.1833 3.02335V1.20971C48.1833 0.877444 48.1139 0.636257 47.9745 0.486882C47.835 0.338236 47.61 0.263184 47.2993 0.263184H43.5192C43.2086 0.263184 42.9835 0.338236 42.8448 0.486882C42.7053 0.636257 42.636 0.877444 42.636 1.20971V3.23393C42.636 4.03983 42.6969 4.64461 42.82 5.04756C42.9424 5.45124 43.1923 5.92414 43.5681 6.46699L45.5561 9.33208L43.5681 12.1972C43.2078 12.7407 42.9623 13.2136 42.832 13.6166C42.7011 14.0203 42.636 14.6243 42.636 15.4302V18.2429C42.636 18.5759 42.7053 18.817 42.8448 18.9657C42.9835 19.1151 43.2086 19.1894 43.5192 19.1894H47.2505C47.5612 19.1894 47.7862 19.1151 47.9256 18.9657C48.0651 18.817 48.1344 18.5759 48.1344 18.2429Z" fill="white"/>
<path d="M45.508 15.6408V16.8234H45.2625V15.6408C45.2625 15.2554 45.2752 14.8918 45.2993 14.55C45.324 14.2083 45.4344 13.8971 45.6305 13.6166L48.5761 9.30586L45.6305 5.04757C45.45 4.76777 45.3438 4.4559 45.3113 4.11489C45.2787 3.77315 45.2625 3.40955 45.2625 3.02409V2.62988H45.508V3.02409C45.508 3.39206 45.5243 3.74255 45.5569 4.07554C45.5894 4.40854 45.6878 4.69782 45.8513 4.94265L48.7969 9.20093H51.7177L54.5657 4.94265C54.7292 4.69709 54.8269 4.40854 54.8601 4.07554C54.8927 3.74255 54.9097 3.39206 54.9097 3.02409V2.62988H55.1545V3.02409C55.1545 3.40955 55.1383 3.77315 55.1057 4.11489C55.0731 4.45663 54.967 4.76777 54.7865 5.04757L51.8904 9.35832L54.7865 13.6166C54.967 13.8971 55.0731 14.2083 55.1057 14.55C55.1383 14.8918 55.1545 15.2554 55.1545 15.6408V16.8234H54.9097V15.6408C54.9097 15.2729 54.8927 14.9224 54.8601 14.5894C54.8276 14.2571 54.7292 13.9678 54.5657 13.7223L51.6937 9.46398H48.7488L45.852 13.7223C45.6878 13.9503 45.5901 14.2352 45.5576 14.5763C45.5243 14.9173 45.508 15.2721 45.508 15.6408Z" fill="#030404"/>
<path d="M71.3784 19.1887C71.6891 19.1887 71.9142 19.1143 72.0529 18.965C72.1916 18.8163 72.2617 18.5751 72.2617 18.2421V5.33684H75.8705C76.1812 5.33684 76.4062 5.26252 76.545 5.11314C76.6837 4.9645 76.7537 4.72331 76.7537 4.39031V1.20971C76.7537 0.877444 76.6844 0.636257 76.545 0.486882C76.4062 0.338236 76.1805 0.263184 75.8705 0.263184H62.9103C62.5996 0.263184 62.3739 0.338236 62.2352 0.486882C62.0964 0.636257 62.0264 0.877444 62.0264 1.20971V4.39031C62.0264 4.72331 62.0957 4.9645 62.2352 5.11314C62.3739 5.26252 62.5996 5.33684 62.9103 5.33684H66.5184V18.2429C66.5184 18.5759 66.5878 18.817 66.7272 18.9657C66.8659 19.1151 67.091 19.1894 67.4017 19.1894H71.3784V19.1887Z" fill="white"/>
<path d="M69.2686 16.8232V2.89195H64.2366V2.62891H74.5455V2.89195H69.5135V16.8232H69.2686Z" fill="#030404"/>
<path d="M11.9401 44.8569C13.8835 44.8569 15.3252 44.4408 16.2658 43.608C17.2057 42.7758 17.6763 41.4941 17.6763 39.7628V31.972C17.6763 30.2407 17.2057 28.959 16.2658 28.1269C15.3245 27.2947 13.8828 26.8779 11.9401 26.8779H4.08132C3.78619 26.8779 3.57175 26.9493 3.44011 27.0907C3.30777 27.2321 3.24194 27.4616 3.24194 27.7771V43.9577C3.24194 44.2739 3.30777 44.5035 3.44011 44.6441C3.57175 44.7855 3.78619 44.8561 4.08132 44.8561H11.9401V44.8569Z" fill="white"/>
<path d="M11.4261 29.3757H6.01611V42.3604H11.4261C12.1727 42.3604 12.775 42.2817 13.2336 42.1229C13.6916 41.9648 14.0461 41.7484 14.2945 41.4737C14.543 41.199 14.7107 40.866 14.7963 40.4747C14.8813 40.0834 14.9244 39.6629 14.9244 39.2134V32.5964C14.9244 32.1468 14.8777 31.7227 14.7843 31.3227C14.6909 30.9234 14.5196 30.5824 14.2719 30.2989C14.0228 30.0162 13.6689 29.7911 13.2103 29.6249C12.7517 29.4588 12.1572 29.3757 11.4261 29.3757Z" fill="white"/>
<path d="M9.1656 35.5678C9.1656 35.3513 9.13445 35.1684 9.07217 35.0183C9.00989 34.869 8.90869 34.7604 8.76855 34.6941V39.888H9.1656V35.5678Z" fill="white"/>
<path d="M56.7111 40.1383V31.6232C56.7111 30.8574 56.6063 30.1623 56.3961 29.5378C56.1866 28.9133 55.8137 28.377 55.2772 27.9275C54.7407 27.4779 54.0026 27.1281 53.062 26.8782C52.1214 26.6283 50.9281 26.5037 49.4822 26.5037C48.037 26.5037 46.8395 26.6283 45.8919 26.8782C44.9428 27.1281 44.2011 27.4779 43.6646 27.9275C43.1281 28.377 42.7551 28.9133 42.5457 29.5378C42.3355 30.1623 42.2307 30.8574 42.2307 31.6232V40.1383C42.2307 40.9042 42.3355 41.5993 42.5457 42.2238C42.7551 42.8475 43.1281 43.3809 43.6646 43.8217C44.2011 44.2633 44.9435 44.6079 45.8919 44.8579C46.8395 45.1078 48.037 45.2324 49.4822 45.2324C50.9281 45.2324 52.1214 45.1078 53.062 44.8579C54.0026 44.6079 54.7407 44.2633 55.2772 43.8217C55.8137 43.3809 56.1866 42.8475 56.3961 42.2238C56.6063 41.5986 56.7111 40.9042 56.7111 40.1383Z" fill="#FF001F"/>
<path d="M13.4088 46.505C12.9269 46.9379 12.3133 47.2665 11.5666 47.4909C10.8206 47.7161 9.94233 47.8283 8.93168 47.8283H1.07293C0.699949 47.8283 0.427475 47.7365 0.25691 47.5536C0.0856369 47.3699 0 47.0792 0 46.6799V30.4986C0 30.2822 0.0268879 30.0993 0.0820916 29.9492C0.136588 29.7991 0.217984 29.6745 0.326976 29.5746L3.33558 26.8531C3.41272 26.7868 3.51746 26.7321 3.64981 26.6906C3.78216 26.6491 3.92583 26.6279 4.08082 26.6279H11.9396C13.9757 26.6279 15.4804 27.0695 16.4521 27.9512C17.4231 28.8336 17.9094 30.1736 17.9094 31.9712V39.7635C17.9094 40.6626 17.7848 41.4489 17.5371 42.1229C17.288 42.7969 16.9228 43.3587 16.4408 43.8083L13.4088 46.505ZM11.9396 44.8568C13.883 44.8568 15.3247 44.4407 16.2653 43.6079C17.2052 42.7758 17.6758 41.494 17.6758 39.7627V31.9719C17.6758 30.2406 17.2052 28.9589 16.2653 28.1268C15.324 27.2947 13.8823 26.8779 11.9396 26.8779H4.08082C3.7857 26.8779 3.57126 26.9493 3.43962 27.0906C3.30727 27.232 3.24144 27.4615 3.24144 27.777V43.9576C3.24144 44.2739 3.30727 44.5034 3.43962 44.644C3.57126 44.7854 3.7857 44.8561 4.08082 44.8561H11.9396V44.8568ZM5.78365 42.6096V29.1258H11.4265C12.2191 29.1258 12.8611 29.2176 13.3508 29.4005C13.8406 29.5841 14.2171 29.8297 14.4818 30.1372C14.7458 30.4454 14.9248 30.8112 15.0182 31.236C15.1117 31.6608 15.1584 32.114 15.1584 32.5971V39.2141C15.1584 39.6972 15.1159 40.1467 15.0303 40.5621C14.9446 40.9781 14.7698 41.3366 14.5051 41.6361C14.2404 41.9356 13.8604 42.1731 13.3628 42.348C12.8653 42.5229 12.2205 42.6103 11.4272 42.6103H5.78365V42.6096ZM11.4265 29.3757H6.0165V42.3604H11.4265C12.1731 42.3604 12.7754 42.2817 13.234 42.1229C13.6919 41.9648 14.0465 41.7483 14.2949 41.4736C14.5434 41.1989 14.7111 40.8659 14.7967 40.4746C14.8816 40.0834 14.9248 39.6629 14.9248 39.2133V32.5964C14.9248 32.1468 14.8781 31.7227 14.7847 31.3227C14.6913 30.9234 14.52 30.5824 14.2723 30.2989C14.0232 30.0162 13.6693 29.791 13.2107 29.6249C12.7521 29.4588 12.1576 29.3757 11.4265 29.3757ZM8.53535 31.6477H11.3104C11.6834 31.6477 11.9594 31.7438 12.1385 31.9348C12.3168 32.1264 12.406 32.4302 12.406 32.8463V38.9146C12.406 39.3306 12.3168 39.6389 12.1385 39.8385C11.9594 40.0382 11.6834 40.138 11.3104 40.138H8.53535V31.6477ZM9.16524 35.5679C9.16524 35.3514 9.13409 35.1685 9.07181 35.0184C9.00953 34.8691 8.90833 34.7605 8.76819 34.6942V39.8881H9.16524V35.5679Z" fill="#030404"/>
<path d="M67.1818 44.8823L64.1505 47.5791C64.0882 47.6454 63.9906 47.7037 63.8589 47.754C63.7266 47.8035 63.5829 47.829 63.4279 47.829H59.8369C59.4639 47.829 59.1914 47.7372 59.0208 47.5543C58.8496 47.3707 58.7639 47.0799 58.7639 46.6806V30.4986C58.7639 30.2822 58.7908 30.0993 58.846 29.9492C58.9005 29.7991 58.9819 29.6745 59.0909 29.5746L62.0995 26.8531C62.1766 26.7868 62.2814 26.7321 62.4137 26.6906C62.5461 26.6491 62.6898 26.6279 62.8447 26.6279H70.6101C72.4601 26.6279 73.727 27.0404 74.4113 27.8645C75.095 28.6886 75.4369 29.7495 75.4369 31.048V32.1963C75.4369 32.8128 75.3675 33.3491 75.2274 33.8067C75.0872 34.265 74.8622 34.6352 74.5515 34.9179H74.5281C75.2585 35.1343 75.8459 35.5671 76.2883 36.2164C76.732 36.8656 76.9528 37.6817 76.9528 38.6639V43.9576C76.9528 44.1741 76.9259 44.3569 76.8714 44.507C76.8162 44.6564 76.7349 44.7818 76.6259 44.8816L73.5946 47.5783C73.5323 47.6447 73.4354 47.7029 73.303 47.7532C73.1707 47.8028 73.027 47.8283 72.872 47.8283H69.2576C68.8846 47.8283 68.6121 47.7365 68.4416 47.5536C68.2696 47.37 68.1846 47.0792 68.1846 46.6799V42.8596C68.1846 42.5936 68.1379 42.3888 68.0445 42.2475C67.9511 42.1061 67.7798 42.0354 67.5314 42.0354H67.508V43.9584C67.508 44.1748 67.4804 44.3577 67.4259 44.5078C67.3722 44.6572 67.2901 44.7825 67.1818 44.8823Z" fill="#030404"/>
<path d="M52.5375 46.6306C51.9933 47.1298 51.2317 47.5174 50.2522 47.7914C49.2727 48.0661 48.0129 48.2038 46.4743 48.2038C44.9505 48.2038 43.7028 48.0326 42.7318 47.6916C41.7601 47.3498 40.9985 46.8966 40.4465 46.3304C39.8945 45.7643 39.5137 45.115 39.3035 44.3827C39.094 43.6504 38.9893 42.8926 38.9893 42.11V34.3447C38.9893 33.5789 39.0905 32.8677 39.2922 32.2097C39.4939 31.5525 39.8598 30.9907 40.3877 30.5243L43.419 27.8276C43.9633 27.3284 44.7212 26.9408 45.6923 26.6668C46.6633 26.3928 47.928 26.2544 49.4829 26.2544C51.006 26.2544 52.2544 26.3877 53.2254 26.6537C54.1965 26.9204 54.9587 27.2905 55.5107 27.7649C56.0621 28.2393 56.4393 28.8054 56.6417 29.4627C56.8434 30.1207 56.9446 30.8406 56.9446 31.6224V40.1375C56.9446 40.9034 56.8434 41.6109 56.6417 42.2601C56.4393 42.9094 56.0734 43.4675 55.5454 43.9331L52.5375 46.6306ZM56.7118 40.1383V31.6232C56.7118 30.8573 56.607 30.1622 56.3968 29.5377C56.1873 28.9133 55.8144 28.377 55.2779 27.9274C54.7414 27.4778 54.0033 27.1281 53.0627 26.8781C52.1221 26.6282 50.9288 26.5036 49.4829 26.5036C48.0377 26.5036 46.8402 26.6282 45.8926 26.8781C44.9435 27.1281 44.2018 27.4778 43.6653 27.9274C43.1288 28.377 42.7558 28.9133 42.5464 29.5377C42.3362 30.1622 42.2314 30.8573 42.2314 31.6232V40.1383C42.2314 40.9041 42.3362 41.5992 42.5464 42.2237C42.7558 42.8474 43.1288 43.3808 43.6653 43.8216C44.2018 44.2632 44.9442 44.6079 45.8926 44.8578C46.8402 45.1077 48.0377 45.2323 49.4829 45.2323C50.9288 45.2323 52.1221 45.1077 53.0627 44.8578C54.0033 44.6079 54.7414 44.2632 55.2779 43.8216C55.8144 43.3808 56.1873 42.8474 56.3968 42.2237C56.607 41.5985 56.7118 40.9041 56.7118 40.1383ZM54.1696 39.5634C54.1696 40.5616 53.8355 41.3734 53.1667 41.9978C52.4986 42.6223 51.2551 42.9341 49.4355 42.9341C47.6166 42.9341 46.3809 42.6223 45.7277 41.9978C45.0744 41.3734 44.7481 40.5616 44.7481 39.5634V32.1973C44.7481 31.1983 45.0744 30.3874 45.7277 29.7629C46.3809 29.1384 47.6166 28.8266 49.4355 28.8266C51.2544 28.8266 52.4979 29.1384 53.1667 29.7629C53.8348 30.3874 54.1696 31.1983 54.1696 32.1973V39.5634ZM44.9824 39.5634C44.9824 40.496 45.2938 41.2487 45.9152 41.8229C46.5373 42.3971 47.7107 42.6842 49.4362 42.6842C51.1624 42.6842 52.3429 42.3971 52.9806 41.8229C53.6175 41.2487 53.9367 40.496 53.9367 39.5634V32.1973C53.9367 31.2654 53.6175 30.512 52.9806 29.937C52.3429 29.3629 51.1617 29.0758 49.4362 29.0758C47.7107 29.0758 46.5373 29.3629 45.9152 29.937C45.2931 30.5112 44.9824 31.2647 44.9824 32.1973V39.5634ZM47.5239 39.2391V32.5216C47.5239 32.2054 47.64 31.935 47.8735 31.7099C48.1071 31.4854 48.6435 31.3725 49.4822 31.3725C50.3216 31.3725 50.8581 31.4847 51.0909 31.7099C51.3245 31.935 51.4412 32.2054 51.4412 32.5216V39.2391C51.4412 39.5721 51.3245 39.8505 51.0909 40.0756C50.8574 40.3 50.3216 40.413 49.4822 40.413C48.6428 40.413 48.1064 40.3008 47.8735 40.0756C47.6407 39.8505 47.5239 39.5721 47.5239 39.2391ZM47.7574 39.2391C47.7574 39.4052 47.7879 39.551 47.8509 39.6763C47.9132 39.8009 48.0292 39.9051 48.2005 39.9882V35.2439C48.2005 35.0777 48.1694 34.932 48.1071 34.8067C48.0448 34.6813 47.928 34.5866 47.7574 34.5196V39.2391Z" fill="#030404"/>
<path d="M54.1692 39.5635C54.1692 40.5617 53.8352 41.3734 53.1664 41.9979C52.4983 42.6224 51.2548 42.9342 49.4352 42.9342C47.6163 42.9342 46.3806 42.6224 45.7273 41.9979C45.0741 41.3734 44.7478 40.5617 44.7478 39.5635V32.1974C44.7478 31.1984 45.0741 30.3874 45.7273 29.763C46.3806 29.1385 47.6163 28.8267 49.4352 28.8267C51.2541 28.8267 52.4976 29.1385 53.1664 29.763C53.8345 30.3874 54.1692 31.1984 54.1692 32.1974V39.5635Z" fill="#030404"/>
<path d="M47.5244 39.2392V32.5217C47.5244 32.2054 47.6405 31.9351 47.874 31.7099C48.1076 31.4855 48.6441 31.3726 49.4827 31.3726C50.3221 31.3726 50.8586 31.4848 51.0914 31.7099C51.325 31.9351 51.4418 32.2054 51.4418 32.5217V39.2392C51.4418 39.5722 51.325 39.8505 51.0914 40.0757C50.8579 40.3001 50.3221 40.413 49.4827 40.413C48.6433 40.413 48.1069 40.3008 47.874 40.0757C47.6412 39.8505 47.5244 39.5722 47.5244 39.2392Z" fill="#030404"/>
<path d="M47.7578 39.2393C47.7578 39.4054 47.7883 39.5512 47.8512 39.6765C47.9135 39.8011 48.0296 39.9053 48.2009 39.9884V35.2441C48.2009 35.0779 48.1697 34.9322 48.1074 34.8069C48.0452 34.6815 47.9284 34.5868 47.7578 34.5198V39.2393Z" fill="white"/>
<path d="M37.1937 40.1383V31.6232C37.1937 30.8574 37.089 30.1623 36.8788 29.5378C36.6693 28.9133 36.2963 28.377 35.7599 27.9275C35.2234 27.4779 34.4852 27.1281 33.5446 26.8782C32.6041 26.6283 31.4108 26.5037 29.9649 26.5037C28.5197 26.5037 27.3222 26.6283 26.3745 26.8782C25.4254 27.1281 24.6837 27.4779 24.1473 27.9275C23.6108 28.377 23.2378 28.9133 23.0283 29.5378C22.8181 30.1623 22.7134 30.8574 22.7134 31.6232V40.1383C22.7134 40.9042 22.8181 41.5993 23.0283 42.2238C23.2378 42.8475 23.6108 43.3809 24.1473 43.8217C24.6837 44.2633 25.4261 44.6079 26.3745 44.8579C27.3222 45.1078 28.5197 45.2324 29.9649 45.2324C31.4108 45.2324 32.6041 45.1078 33.5446 44.8579C34.4852 44.6079 35.2234 44.2633 35.7599 43.8217C36.2963 43.3809 36.6693 42.8475 36.8788 42.2238C37.0883 41.5986 37.1937 40.9042 37.1937 40.1383Z" fill="#FF001F"/>
<path d="M33.0202 46.6306C32.4759 47.1298 31.7144 47.5174 30.7349 47.7914C29.7554 48.0661 28.4956 48.2038 26.957 48.2038C25.4332 48.2038 24.1855 48.0326 23.2145 47.6916C22.2427 47.3498 21.4812 46.8966 20.9292 46.3304C20.3771 45.7643 19.9964 45.115 19.7862 44.3827C19.5767 43.6504 19.4719 42.8926 19.4719 42.11V34.3447C19.4719 33.5789 19.5731 32.8677 19.7748 32.2097C19.9765 31.5525 20.3424 30.9907 20.8704 30.5243L23.9017 27.8276C24.4459 27.3284 25.2039 26.9408 26.1749 26.6668C27.1459 26.3928 28.4107 26.2544 29.9649 26.2544C31.4879 26.2544 32.7364 26.3877 33.7074 26.6537C34.6784 26.9204 35.4407 27.2905 35.9927 27.7649C36.544 28.2393 36.9213 28.8054 37.1237 29.4627C37.3254 30.1207 37.4266 30.8406 37.4266 31.6224V40.1375C37.4266 40.9034 37.3254 41.6109 37.1237 42.2601C36.9213 42.9094 36.5554 43.4675 36.0274 43.9331L33.0202 46.6306ZM37.1944 40.1383V31.6232C37.1944 30.8573 37.0897 30.1622 36.8795 29.5377C36.67 28.9133 36.297 28.377 35.7606 27.9274C35.2241 27.4778 34.4859 27.1281 33.5453 26.8781C32.6048 26.6282 31.4115 26.5036 29.9656 26.5036C28.5204 26.5036 27.3229 26.6282 26.3752 26.8781C25.4261 27.1281 24.6844 27.4778 24.148 27.9274C23.6115 28.377 23.2385 28.9133 23.029 29.5377C22.8188 30.1622 22.7141 30.8573 22.7141 31.6232V40.1383C22.7141 40.9041 22.8188 41.5992 23.029 42.2237C23.2385 42.8474 23.6115 43.3808 24.148 43.8216C24.6844 44.2632 25.4268 44.6079 26.3752 44.8578C27.3229 45.1077 28.5204 45.2323 29.9656 45.2323C31.4115 45.2323 32.6048 45.1077 33.5453 44.8578C34.4859 44.6079 35.2241 44.2632 35.7606 43.8216C36.297 43.3808 36.67 42.8474 36.8795 42.2237C37.089 41.5985 37.1944 40.9041 37.1944 40.1383ZM34.6522 39.5634C34.6522 40.5616 34.3182 41.3734 33.6494 41.9978C32.9806 42.6223 31.7378 42.9341 29.9182 42.9341C28.0993 42.9341 26.8636 42.6223 26.2103 41.9978C25.5571 41.3734 25.2308 40.5616 25.2308 39.5634V32.1973C25.2308 31.1983 25.5571 30.3874 26.2103 29.7629C26.8636 29.1384 28.0993 28.8266 29.9182 28.8266C31.7371 28.8266 32.9806 29.1384 33.6494 29.7629C34.3182 30.3874 34.6522 31.1983 34.6522 32.1973V39.5634ZM25.4644 39.5634C25.4644 40.496 25.7758 41.2487 26.3972 41.8229C27.0193 42.3971 28.1927 42.6842 29.9182 42.6842C31.6443 42.6842 32.8249 42.3971 33.4625 41.8229C34.0995 41.2487 34.4187 40.496 34.4187 39.5634V32.1973C34.4187 31.2654 34.0995 30.512 33.4625 29.937C32.8249 29.3629 31.6436 29.0758 29.9182 29.0758C28.1927 29.0758 27.0193 29.3629 26.3972 29.937C25.7751 30.5112 25.4644 31.2647 25.4644 32.1973V39.5634ZM28.0066 39.2391V32.5216C28.0066 32.2054 28.1226 31.935 28.3562 31.7099C28.5897 31.4854 29.1262 31.3725 29.9649 31.3725C30.8043 31.3725 31.3407 31.4847 31.5736 31.7099C31.8071 31.935 31.9239 32.2054 31.9239 32.5216V39.2391C31.9239 39.5721 31.8071 39.8505 31.5736 40.0756C31.34 40.3 30.8043 40.413 29.9649 40.413C29.1255 40.413 28.589 40.3008 28.3562 40.0756C28.1226 39.8505 28.0066 39.5721 28.0066 39.2391ZM28.2401 39.2391C28.2401 39.4052 28.2705 39.551 28.3335 39.6763C28.3958 39.8009 28.5119 39.9051 28.6832 39.9882V35.2439C28.6832 35.0777 28.652 34.932 28.5897 34.8067C28.5275 34.6813 28.4107 34.5866 28.2401 34.5196V39.2391Z" fill="#030404"/>
<path d="M34.6519 39.5635C34.6519 40.5617 34.3178 41.3734 33.649 41.9979C32.9802 42.6224 31.7374 42.9342 29.9178 42.9342C28.0989 42.9342 26.8632 42.6224 26.21 41.9979C25.5567 41.3734 25.2305 40.5617 25.2305 39.5635V32.1974C25.2305 31.1984 25.5567 30.3874 26.21 29.763C26.8632 29.1385 28.0989 28.8267 29.9178 28.8267C31.7367 28.8267 32.9802 29.1385 33.649 29.763C34.3178 30.3874 34.6519 31.1984 34.6519 32.1974V39.5635Z" fill="#030404"/>
<path d="M28.0071 39.2392V32.5217C28.0071 32.2054 28.1231 31.9351 28.3567 31.7099C28.5903 31.4855 29.1267 31.3726 29.9654 31.3726C30.8048 31.3726 31.3412 31.4848 31.5741 31.7099C31.8076 31.9351 31.9244 32.2054 31.9244 32.5217V39.2392C31.9244 39.5722 31.8076 39.8505 31.5741 40.0757C31.3405 40.3001 30.8048 40.413 29.9654 40.413C29.126 40.413 28.5895 40.3008 28.3567 40.0757C28.1231 39.8505 28.0071 39.5722 28.0071 39.2392Z" fill="#030404"/>
<path d="M28.2405 39.2393C28.2405 39.4054 28.2709 39.5512 28.3339 39.6765C28.3962 39.8011 28.5123 39.9053 28.6835 39.9884V35.2441C28.6835 35.0779 28.6524 34.9322 28.5901 34.8069C28.5278 34.6815 28.411 34.5868 28.2405 34.5198V39.2393Z" fill="white"/>
<path d="M48.1772 40.138C47.8162 40.138 47.5239 39.837 47.5239 39.4654V34.861C47.5239 34.4894 47.8162 34.1885 48.1772 34.1885C48.5381 34.1885 48.8304 34.4894 48.8304 34.861V39.4654C48.8304 39.8363 48.5381 40.138 48.1772 40.138Z" fill="white"/>
<path d="M28.4494 40.138C28.0884 40.138 27.7961 39.837 27.7961 39.4654V34.861C27.7961 34.4894 28.0884 34.1885 28.4494 34.1885C28.8103 34.1885 29.1026 34.4894 29.1026 34.861V39.4654C29.1026 39.8363 28.8103 40.138 28.4494 40.138Z" fill="white"/>
<path d="M66.4349 44.8571C66.73 44.8571 66.9445 44.7864 67.0761 44.6451C67.2078 44.5037 67.2743 44.2749 67.2743 43.9587V39.0643H70.5391C70.8654 39.0643 71.0947 39.1517 71.227 39.3266C71.3594 39.5015 71.4259 39.7718 71.4259 40.1383V43.9587C71.4259 44.2749 71.4917 44.5045 71.6241 44.6451C71.7557 44.7864 71.9701 44.8571 72.2653 44.8571H75.8797C76.1741 44.8571 76.3886 44.7864 76.5209 44.6451C76.6533 44.5037 76.7191 44.2749 76.7191 43.9587V38.665C76.7191 37.6157 76.4586 36.7756 75.9384 36.1431C75.4168 35.5106 74.7374 35.1441 73.898 35.0443C74.38 34.8279 74.7176 34.4745 74.9122 33.9826C75.1061 33.4922 75.2038 32.8962 75.2038 32.1974V31.049C75.2038 29.8176 74.8733 28.8142 74.213 28.0404C73.5519 27.2658 72.3516 26.8789 70.6106 26.8789H62.8452C62.5501 26.8789 62.3357 26.9503 62.204 27.0917C62.0717 27.233 62.0059 27.4626 62.0059 27.7781V43.9587C62.0059 44.2749 62.0717 44.5045 62.204 44.6451C62.3357 44.7864 62.5501 44.8571 62.8452 44.8571H66.4349Z" fill="white"/>
<path d="M64.756 42.6101H64.5225V29.1262H69.839C70.7407 29.1262 71.4088 29.3966 71.844 29.9372C72.2793 30.4786 72.4973 31.157 72.4973 31.9724V33.6956C72.4973 34.4615 72.4039 35.0903 72.2177 35.5807C72.0309 36.0718 71.6586 36.4092 71.0988 36.5921H71.355C72.3034 36.5921 73.0104 36.8209 73.4768 37.2785C73.9432 37.7361 74.1768 38.3984 74.1768 39.2633V42.6093H73.9432V39.2633C73.9432 38.448 73.733 37.8359 73.3133 37.4278C72.8943 37.0205 72.2411 36.8165 71.355 36.8165H64.756V42.6101Z" fill="#030404"/>
<path d="M69.8398 29.3762H64.7568V36.5929H69.8398C70.8038 36.5929 71.4485 36.3429 71.7755 35.8438C72.1018 35.3447 72.2653 34.6371 72.2653 33.7212V31.9724C72.2653 31.2073 72.0671 30.5829 71.6707 30.0998C71.2737 29.6174 70.6629 29.3762 69.8398 29.3762Z" fill="white"/>
<path d="M67.2747 31.3733H69.0235C69.4276 31.3733 69.6994 31.4855 69.8395 31.7107C69.9796 31.9358 70.0497 32.2142 70.0497 32.5472V33.3961C70.0497 33.729 69.9796 34.0074 69.8395 34.2326C69.6994 34.4577 69.4276 34.5699 69.0235 34.5699H67.2747V31.3733Z" fill="#030404"/>
</svg>
