<svg width="12" height="13" viewBox="0 0 12 13" fill="none" xmlns="http://www.w3.org/2000/svg">
<g clip-path="url(#clip0_201_1167)">
<path d="M3.83258 3.8589C4.70888 2.20034 6.92304 1.56478 8.58463 2.80421C8.90402 2.47432 9.22251 2.14536 9.54122 1.81616C9.34945 1.81616 9.14403 1.81616 8.92973 1.81616C8.92973 1.49884 8.92973 1.19527 8.92973 0.887512C9.66475 0.887512 10.3945 0.887512 11.1337 0.887512C11.1337 1.64003 11.1337 2.38416 11.1337 3.1404C10.8386 3.1404 10.5422 3.1404 10.2323 3.1404C10.2323 2.93189 10.2323 2.72058 10.2323 2.51719C9.91317 2.84522 9.59719 3.17022 9.28439 3.49196C10.1925 5.04219 10.162 6.54 8.86854 7.88078C7.9315 8.85207 6.46032 9.05709 5.26008 8.46859C4.03823 7.86937 3.42788 6.62481 3.42651 5.57827C3.71702 5.52049 4.00434 5.54239 4.28665 5.63023C4.31259 5.63838 4.33693 5.6922 4.34102 5.72761C4.4666 6.78719 5.19138 7.59958 6.20417 7.81252C7.70925 8.12891 9.12401 6.83309 8.96909 5.27028C8.87581 4.32858 8.40013 3.6441 7.54955 3.28019C6.69441 2.91441 5.88546 3.05606 5.15999 3.64992C5.04556 3.74358 4.95343 3.86543 4.84674 3.97003C4.82148 3.99473 4.77712 4.01849 4.74573 4.01383C4.45386 3.9705 4.16313 3.92111 3.87194 3.87311C3.86125 3.87102 3.85101 3.86566 3.83258 3.8589Z" fill="#FF0000"/>
<path d="M6.97089 7.45575C6.72748 7.50095 6.48543 7.48441 6.24088 7.44411C6.10734 7.42197 6.06093 7.36489 6.04387 7.22254C5.9183 6.17857 5.0784 5.33287 4.04537 5.19494C3.0021 5.05562 1.98294 5.65973 1.59189 6.64942C1.15442 7.75629 1.55594 8.99107 2.5544 9.60939C3.52646 10.2114 4.79495 9.98542 5.53952 9.08007C5.56569 9.04839 5.62028 9.01507 5.65532 9.02113C5.95333 9.07215 6.24975 9.13226 6.56346 9.19283C6.49794 9.29953 6.42332 9.42115 6.34871 9.54276C6.53457 9.72495 6.72156 9.90854 6.9172 10.1003C7.07872 9.92741 7.25594 9.73753 7.43133 9.54975C7.65882 9.78436 7.8688 10.0008 8.09083 10.2296C7.91225 10.4052 7.7273 10.5872 7.53075 10.7808C7.72798 10.9753 7.91225 11.1568 8.09333 11.3353C7.8672 11.5657 7.65837 11.7789 7.43998 12.0014C7.27186 11.8185 7.09669 11.6281 6.91675 11.4327C6.71633 11.6463 6.53866 11.8357 6.36395 12.0219C6.13236 11.784 5.92034 11.5659 5.69217 11.3318C5.86938 11.1554 6.05342 10.9723 6.23405 10.7922C6.04819 10.6033 5.8662 10.4183 5.67693 10.2261C4.89641 10.7957 4.0233 11.0042 3.06943 10.8025C2.35512 10.6515 1.76023 10.2822 1.28409 9.71633C0.324083 8.57521 0.243324 6.90872 1.08527 5.66439C1.91401 4.43963 3.47232 3.92988 4.83385 4.43567C6.25453 4.9629 6.96725 6.30997 6.97089 7.45575Z" fill="#FF0000"/>
</g>
<defs>
<clipPath id="clip0_201_1167">
<rect width="10.6277" height="11.1337" fill="white" transform="translate(0.503906 0.887573)"/>
</clipPath>
</defs>
</svg>
