<svg width="9" height="7" viewBox="0 0 9 7" fill="none" xmlns="http://www.w3.org/2000/svg">
<g clip-path="url(#clip0_201_1153)">
<path d="M4.46098 0.0987574C5.86101 0.115198 7.08637 0.579697 8.13303 1.50037C8.33539 1.67845 8.3396 1.85355 8.15229 2.04371C7.9393 2.25982 7.7929 2.26041 7.56006 2.05876C6.79838 1.39935 5.91536 1.00735 4.90519 0.916236C3.57274 0.796199 2.39853 1.17849 1.37914 2.03103C1.19945 2.18138 1.02938 2.17741 0.868339 2.01004C0.807572 1.94685 0.742795 1.87574 0.714919 1.79631C0.666787 1.65864 0.723943 1.54118 0.835649 1.44551C1.51952 0.859981 2.29926 0.457283 3.17927 0.24712C3.59982 0.146495 4.02699 0.0961824 4.46098 0.0987574Z" fill="#FF0000"/>
<path d="M4.45966 1.70167C5.48146 1.71158 6.37812 2.04653 7.15946 2.69842C7.44303 2.93492 7.30907 3.23086 7.03512 3.35723C6.90977 3.41507 6.78844 3.37664 6.68355 3.28553C6.23813 2.89828 5.72693 2.63523 5.14414 2.52212C4.1059 2.32048 3.16652 2.54669 2.34307 3.20174C2.09619 3.39804 1.88622 3.33326 1.71996 3.09874C1.62129 2.95968 1.65498 2.78716 1.79858 2.66672C2.13209 2.38723 2.5017 2.16518 2.90661 2.00137C3.40397 1.80032 3.92159 1.70029 4.45966 1.70167Z" fill="#FF0000"/>
<path d="M4.45719 3.24198C5.10456 3.2503 5.68194 3.45116 6.18452 3.85623C6.34435 3.98498 6.37063 4.1797 6.2499 4.32826C6.12275 4.48474 5.92862 4.50376 5.76236 4.37619C4.9726 3.76967 4.01738 3.75244 3.21358 4.33024C3.04472 4.45166 2.85339 4.4265 2.72745 4.26626C2.61253 4.12007 2.64703 3.92397 2.80987 3.7972C3.26352 3.44462 3.86877 3.2404 4.45719 3.24198Z" fill="#FF0000"/>
<path d="M4.49084 6.17172C4.09636 6.17152 3.78591 5.8635 3.78711 5.47348C3.78832 5.08386 4.10117 4.77664 4.49465 4.77842C4.88913 4.7804 5.19898 5.08762 5.19898 5.47725C5.19898 5.86549 4.88652 6.17192 4.49084 6.17172Z" fill="#FF0000"/>
</g>
<defs>
<clipPath id="clip0_201_1153">
<rect width="7.59119" height="6.07295" fill="white" transform="translate(0.698486 0.0987549)"/>
</clipPath>
</defs>
</svg>
